<?xml version="1.0" encoding="utf-8"?>
<svg version="1.1" xmlns:xlink="http://www.w3.org/1999/xlink" width="60px" height="26px" xmlns="http://www.w3.org/2000/svg">
  <g transform="matrix(1 0 0 1 -1031 -12 )">
    <path d="M 1032 17  A 4 4 0 0 1 1036 13 L 1086 13  A 4 4 0 0 1 1090 17 L 1090 33  A 4 4 0 0 1 1086 37 L 1036 37  A 4 4 0 0 1 1032 33 L 1032 17  Z " fill-rule="nonzero" fill="#ffffff" stroke="none" />
    <path d="M 1031.5 17  A 4.5 4.5 0 0 1 1036 12.5 L 1086 12.5  A 4.5 4.5 0 0 1 1090.5 17 L 1090.5 33  A 4.5 4.5 0 0 1 1086 37.5 L 1036 37.5  A 4.5 4.5 0 0 1 1031.5 33 L 1031.5 17  Z " stroke-width="1" stroke="#1490ff" fill="none" stroke-opacity="0.498039215686275" />
  </g>
</svg>