<?xml version="1.0" encoding="utf-8"?>
<svg version="1.1" xmlns:xlink="http://www.w3.org/1999/xlink" width="60px" height="26px" xmlns="http://www.w3.org/2000/svg">
  <g transform="matrix(1 0 0 1 -1104 -12 )">
    <path d="M 1105 17  A 4 4 0 0 1 1109 13 L 1159 13  A 4 4 0 0 1 1163 17 L 1163 33  A 4 4 0 0 1 1159 37 L 1109 37  A 4 4 0 0 1 1105 33 L 1105 17  Z " fill-rule="nonzero" fill="#1490ff" stroke="none" />
    <path d="M 1104.5 17  A 4.5 4.5 0 0 1 1109 12.5 L 1159 12.5  A 4.5 4.5 0 0 1 1163.5 17 L 1163.5 33  A 4.5 4.5 0 0 1 1159 37.5 L 1109 37.5  A 4.5 4.5 0 0 1 1104.5 33 L 1104.5 17  Z " stroke-width="1" stroke="#1490ff" fill="none" stroke-opacity="0.498039215686275" />
  </g>
</svg>