<?xml version="1.0" encoding="utf-8"?>
<svg version="1.1" xmlns:xlink="http://www.w3.org/1999/xlink" width="10px" height="6px" xmlns="http://www.w3.org/2000/svg">
  <g transform="matrix(1 0 0 1 -1219 -396 )">
    <path d="M 9.21225000000004 1.30600000000004  C 9.32074999999998 1.19662500000004  9.375 1.06887499999993  9.375 0.921875  C 9.375 0.774875000000065  9.32074999999998 0.64712499999996  9.21225000000004 0.53774999999996  C 9.10287500000004 0.42837499999996  8.97512500000005 0.375  8.828125 0.375  L 1.171875 0.375  C 1.024 0.375  0.896250000000009 0.42837499999996  0.78774999999996 0.53774999999996  C 0.67837499999996 0.64712499999996  0.625 0.774875000000065  0.625 0.921875  C 0.625 1.06887499999993  0.67837499999996 1.19662500000004  0.78774999999996 1.30600000000004  L 4.61587499999996 5.13412500000004  C 4.72437500000001 5.24174999999991  4.852125 5.296875  5 5.296875  C 5.14700000000005 5.296875  5.27475000000004 5.24262500000009  5.38412500000004 5.13412500000004  L 9.21225000000004 1.30600000000004  Z " fill-rule="nonzero" fill="#ffffff" stroke="none" transform="matrix(1 0 0 1 1219 396 )" />
  </g>
</svg>