<?xml version="1.0" encoding="utf-8"?>
<svg version="1.1" xmlns:xlink="http://www.w3.org/1999/xlink" width="14px" height="14px" xmlns="http://www.w3.org/2000/svg">
  <g transform="matrix(1 0 0 1 -1247 -248 )">
    <path d="M 1248 251  A 2 2 0 0 1 1250 249 L 1258 249  A 2 2 0 0 1 1260 251 L 1260 259  A 2 2 0 0 1 1258 261 L 1250 261  A 2 2 0 0 1 1248 259 L 1248 251  Z " fill-rule="nonzero" fill="#ffffff" stroke="none" />
    <path d="M 1247.5 251  A 2.5 2.5 0 0 1 1250 248.5 L 1258 248.5  A 2.5 2.5 0 0 1 1260.5 251 L 1260.5 259  A 2.5 2.5 0 0 1 1258 261.5 L 1250 261.5  A 2.5 2.5 0 0 1 1247.5 259 L 1247.5 251  Z " stroke-width="1" stroke="#aebde4" fill="none" stroke-opacity="0.349019607843137" />
  </g>
</svg>