<?xml version="1.0" encoding="utf-8"?>
<svg version="1.1" xmlns:xlink="http://www.w3.org/1999/xlink" width="14px" height="14px" xmlns="http://www.w3.org/2000/svg">
  <g transform="matrix(1 0 0 1 -1304 -214 )">
    <path d="M 1311 214  C 1314.92 214  1318 217.08  1318 221  C 1318 224.92  1314.92 228  1311 228  C 1307.08 228  1304 224.92  1304 221  C 1304 217.08  1307.08 214  1311 214  Z " fill-rule="nonzero" fill="#ffffff" stroke="none" fill-opacity="0" />
    <path d="M 1311 214.5  C 1314.64 214.5  1317.5 217.36  1317.5 221  C 1317.5 224.64  1314.64 227.5  1311 227.5  C 1307.36 227.5  1304.5 224.64  1304.5 221  C 1304.5 217.36  1307.36 214.5  1311 214.5  Z " stroke-width="1" stroke="#d9d9d9" fill="none" />
  </g>
</svg>