<?xml version="1.0" encoding="utf-8"?>
<svg version="1.1" xmlns:xlink="http://www.w3.org/1999/xlink" width="14px" height="14px" xmlns="http://www.w3.org/2000/svg">
  <g transform="matrix(1 0 0 1 -1245 -214 )">
    <path d="M 1252 214  C 1255.92 214  1259 217.08  1259 221  C 1259 224.92  1255.92 228  1252 228  C 1248.08 228  1245 224.92  1245 221  C 1245 217.08  1248.08 214  1252 214  Z " fill-rule="nonzero" fill="#ffffff" stroke="none" fill-opacity="0" />
    <path d="M 1252 214.5  C 1255.64 214.5  1258.5 217.36  1258.5 221  C 1258.5 224.64  1255.64 227.5  1252 227.5  C 1248.36 227.5  1245.5 224.64  1245.5 221  C 1245.5 217.36  1248.36 214.5  1252 214.5  Z " stroke-width="1" stroke="#1890ff" fill="none" />
  </g>
</svg>