<?xml version="1.0" encoding="utf-8"?>
<svg version="1.1" xmlns:xlink="http://www.w3.org/1999/xlink" width="100px" height="26px" xmlns="http://www.w3.org/2000/svg">
  <g transform="matrix(1 0 0 1 -970 -12 )">
    <path d="M 971 17  A 4 4 0 0 1 975 13 L 1065 13  A 4 4 0 0 1 1069 17 L 1069 33  A 4 4 0 0 1 1065 37 L 975 37  A 4 4 0 0 1 971 33 L 971 17  Z " fill-rule="nonzero" fill="#ffffff" stroke="none" />
    <path d="M 970.5 17  A 4.5 4.5 0 0 1 975 12.5 L 1065 12.5  A 4.5 4.5 0 0 1 1069.5 17 L 1069.5 33  A 4.5 4.5 0 0 1 1065 37.5 L 975 37.5  A 4.5 4.5 0 0 1 970.5 33 L 970.5 17  Z " stroke-width="1" stroke="#1490ff" fill="none" stroke-opacity="0.498039215686275" />
  </g>
</svg>