<?xml version="1.0" encoding="utf-8"?>
<svg version="1.1" xmlns:xlink="http://www.w3.org/1999/xlink" width="145px" height="145px" xmlns="http://www.w3.org/2000/svg">
  <g transform="matrix(1 0 0 1 -907 -150 )">
    <path d="M 980.000109976722 150.501700516115  C 1019.53442990073 150.770627894198  1051.5 182.902334480334  1051.5 222.5  C 1051.5 262.264501987817  1019.26450198782 294.5  979.5 294.5  C 974.214233610996 294.5  968.945049739352 293.917936719783  963.787669233887 292.764661559264  L 979.987179540616 222.612499312019  A 0.5 0.5 0 0 0 980 222.5 L 980.000109729037 150.501700514431  Z " fill-rule="nonzero" fill="#1890ff" stroke="none" />
    <path d="M 980.000109976722 150.501700516115  C 1019.53442990073 150.770627894198  1051.5 182.902334480334  1051.5 222.5  C 1051.5 262.264501987817  1019.26450198782 294.5  979.5 294.5  C 974.214233610996 294.5  968.945049739352 293.917936719783  963.787669233887 292.764661559264  L 979.987179540616 222.612499312019  A 0.5 0.5 0 0 0 980 222.5 L 980.000109729037 150.501700514431  Z " stroke-width="1" stroke="#ffffff" fill="none" />
  </g>
</svg>