<?xml version="1.0" encoding="utf-8"?>
<svg version="1.1" xmlns:xlink="http://www.w3.org/1999/xlink" width="63px" height="32px" xmlns="http://www.w3.org/2000/svg">
  <g transform="matrix(1 0 0 1 -2437 -2507 )">
    <path d="M 2437.5 2511  A 3.5 3.5 0 0 1 2441 2507.5 L 2496 2507.5  A 3.5 3.5 0 0 1 2499.5 2511 L 2499.5 2535  A 3.5 3.5 0 0 1 2496 2538.5 L 2441 2538.5  A 3.5 3.5 0 0 1 2437.5 2535 L 2437.5 2511  Z " fill-rule="nonzero" fill="#0099ff" stroke="none" fill-opacity="0.0980392156862745" />
    <path d="M 2437.5 2511  A 3.5 3.5 0 0 1 2441 2507.5 L 2496 2507.5  A 3.5 3.5 0 0 1 2499.5 2511 L 2499.5 2535  A 3.5 3.5 0 0 1 2496 2538.5 L 2441 2538.5  A 3.5 3.5 0 0 1 2437.5 2535 L 2437.5 2511  Z " stroke-width="1" stroke="#a7d2f9" fill="none" />
  </g>
</svg>