<?xml version="1.0" encoding="utf-8"?>
<svg version="1.1" xmlns:xlink="http://www.w3.org/1999/xlink" width="140px" height="40px" xmlns="http://www.w3.org/2000/svg">
  <g transform="matrix(1 0 0 1 -248 -716 )">
    <path d="M 249 721  A 4 4 0 0 1 253 717 L 383 717  A 4 4 0 0 1 387 721 L 387 751  A 4 4 0 0 1 383 755 L 253 755  A 4 4 0 0 1 249 751 L 249 721  Z " fill-rule="nonzero" fill="#ffffff" stroke="none" />
    <path d="M 248.5 721  A 4.5 4.5 0 0 1 253 716.5 L 383 716.5  A 4.5 4.5 0 0 1 387.5 721 L 387.5 751  A 4.5 4.5 0 0 1 383 755.5 L 253 755.5  A 4.5 4.5 0 0 1 248.5 751 L 248.5 721  Z " stroke-width="1" stroke="#1490ff" fill="none" stroke-opacity="0.498039215686275" />
  </g>
</svg>