<?xml version="1.0" encoding="utf-8"?>
<svg version="1.1" xmlns:xlink="http://www.w3.org/1999/xlink" width="143px" height="32px" xmlns="http://www.w3.org/2000/svg">
  <g transform="matrix(1 0 0 1 -539 -2507 )">
    <path d="M 540 2511  A 3 3 0 0 1 543 2508 L 678 2508  A 3 3 0 0 1 681 2511 L 681 2535  A 3 3 0 0 1 678 2538 L 543 2538  A 3 3 0 0 1 540 2535 L 540 2511  Z " fill-rule="nonzero" fill="#ffffff" stroke="none" />
    <path d="M 539.5 2511  A 3.5 3.5 0 0 1 543 2507.5 L 678 2507.5  A 3.5 3.5 0 0 1 681.5 2511 L 681.5 2535  A 3.5 3.5 0 0 1 678 2538.5 L 543 2538.5  A 3.5 3.5 0 0 1 539.5 2535 L 539.5 2511  Z " stroke-width="1" stroke-dasharray="9,4" stroke="#d9d9d9" fill="none" stroke-dashoffset="0.5" />
  </g>
</svg>