<?xml version="1.0" encoding="utf-8"?>
<svg version="1.1" xmlns:xlink="http://www.w3.org/1999/xlink" width="60px" height="32px" xmlns="http://www.w3.org/2000/svg">
  <g transform="matrix(1 0 0 1 -2775 -2401 )">
    <path d="M 2776 2405  A 3 3 0 0 1 2779 2402 L 2831 2402  A 3 3 0 0 1 2834 2405 L 2834 2429  A 3 3 0 0 1 2831 2432 L 2779 2432  A 3 3 0 0 1 2776 2429 L 2776 2405  Z " fill-rule="nonzero" fill="#ffffff" stroke="none" />
    <path d="M 2775.5 2405  A 3.5 3.5 0 0 1 2779 2401.5 L 2831 2401.5  A 3.5 3.5 0 0 1 2834.5 2405 L 2834.5 2429  A 3.5 3.5 0 0 1 2831 2432.5 L 2779 2432.5  A 3.5 3.5 0 0 1 2775.5 2429 L 2775.5 2405  Z " stroke-width="1" stroke="#2767f1" fill="none" stroke-opacity="0.2" />
  </g>
</svg>