<?xml version="1.0" encoding="utf-8"?>
<svg version="1.1" xmlns:xlink="http://www.w3.org/1999/xlink" width="10px" height="6px" xmlns="http://www.w3.org/2000/svg">
  <g transform="matrix(1 0 0 1 -3765 -2579 )">
    <path d="M 9.8997995991985 4.87917525773196  C 9.9665998663995 4.94751104565538  10 5.02609720176731  10 5.11493372606775  C 10 5.20377025036819  9.9665998663995 5.28235640648013  9.8997995991985 5.35069219440353  L 9.39879759519035 5.86321060382916  C 9.33199732798935 5.93154639175257  9.25517702070811 5.96571428571429  9.16833667334657 5.96571428571429  C 9.08149632598537 5.96571428571429  9.00467601870417 5.93154639175257  8.93787575150299 5.86321060382916  L 5 1.83481590574373  L 1.06212424849701 5.86321060382916  C 0.995323981295826 5.93154639175257  0.91850367401463 5.96571428571429  0.831663326653427 5.96571428571429  C 0.744822979291892 5.96571428571429  0.668002672010649 5.93154639175257  0.60120240480965 5.86321060382916  L 0.100200400801498 5.35069219440353  C 0.0334001336004993 5.28235640648013  0 5.20377025036819  0 5.11493372606775  C 0 5.02609720176731  0.0334001336004993 4.94751104565538  0.100200400801498 4.87917525773196  L 4.76953907815622 0.102503681885137  C 4.83633934535732 0.0341678939616961  4.91315965263851 0  5 0  C 5.08684034736149 0  5.16366065464268 0.0341678939616961  5.23046092184378 0.102503681885137  L 9.8997995991985 4.87917525773196  Z " fill-rule="nonzero" fill="#999999" stroke="none" transform="matrix(1 0 0 1 3765 2579 )" />
  </g>
</svg>