<?xml version="1.0" encoding="utf-8"?>
<svg version="1.1" xmlns:xlink="http://www.w3.org/1999/xlink" width="10px" height="6px" xmlns="http://www.w3.org/2000/svg">
  <g transform="matrix(1 0 0 1 -3765 -2594 )">
    <path d="M 9.89979959919841 0.615022091310749  C 9.96659986639945 0.683357879234165  10 0.761944035346102  10 0.850780559646535  C 10 0.939617083946981  9.96659986639945 1.01820324005891  9.89979959919841 1.08653902798232  L 5.23046092184368 5.86321060382916  C 5.16366065464264 5.93154639175258  5.08684034736139 5.96571428571428  5 5.96571428571428  C 4.91315965263861 5.96571428571428  4.83633934535741 5.93154639175258  4.76953907815632 5.86321060382916  L 0.100200400801593 1.08653902798232  C 0.0334001336005466 1.01820324005891  0 0.939617083946981  0 0.850780559646535  C 0 0.761944035346102  0.0334001336005466 0.683357879234165  0.100200400801593 0.615022091310749  L 0.601202404809603 0.102503681885131  C 0.668002672010696 0.0341678939617144  0.744822979291892 0  0.831663326653332 0  C 0.918503674014725 0  0.995323981295921 0.0341678939617144  1.06212424849701 0.102503681885131  L 5 4.13089837997054  L 8.93787575150299 0.102503681885131  C 9.00467601870408 0.0341678939617144  9.08149632598528 0  9.16833667334667 0  C 9.25517702070811 0  9.3319973279893 0.0341678939617144  9.3987975951904 0.102503681885131  L 9.89979959919841 0.615022091310749  Z " fill-rule="nonzero" fill="#cccccc" stroke="none" transform="matrix(1 0 0 1 3765 2594 )" />
  </g>
</svg>