<?xml version="1.0" encoding="utf-8"?>
<svg version="1.1" xmlns:xlink="http://www.w3.org/1999/xlink" width="40px" height="40px" xmlns="http://www.w3.org/2000/svg">
  <g transform="matrix(1 0 0 1 -601 -16 )">
    <path d="M 621 16  C 632.2 16  641 24.8  641 36  C 641 47.2  632.2 56  621 56  C 609.8 56  601 47.2  601 36  C 601 24.8  609.8 16  621 16  Z " fill-rule="nonzero" fill="#ffffff" stroke="none" />
    <path d="M 621 16.5  C 631.92 16.5  640.5 25.08  640.5 36  C 640.5 46.92  631.92 55.5  621 55.5  C 610.08 55.5  601.5 46.92  601.5 36  C 601.5 25.08  610.08 16.5  621 16.5  Z " stroke-width="1" stroke="#cacbdc" fill="none" />
  </g>
</svg>