<?xml version="1.0" encoding="utf-8"?>
<svg version="1.1" xmlns:xlink="http://www.w3.org/1999/xlink" width="1004px" height="32px" xmlns="http://www.w3.org/2000/svg">
  <g transform="matrix(1 0 0 1 -14 -221 )">
    <path d="M 15 225  A 3 3 0 0 1 18 222 L 1014 222  A 3 3 0 0 1 1017 225 L 1017 249  A 3 3 0 0 1 1014 252 L 18 252  A 3 3 0 0 1 15 249 L 15 225  Z " fill-rule="nonzero" fill="#ffffff" stroke="none" />
    <path d="M 14.5 225  A 3.5 3.5 0 0 1 18 221.5 L 1014 221.5  A 3.5 3.5 0 0 1 1017.5 225 L 1017.5 249  A 3.5 3.5 0 0 1 1014 252.5 L 18 252.5  A 3.5 3.5 0 0 1 14.5 249 L 14.5 225  Z " stroke-width="1" stroke-dasharray="9,4" stroke="#d9d9d9" fill="none" stroke-dashoffset="0.5" />
  </g>
</svg>