<?xml version="1.0" encoding="utf-8"?>
<svg version="1.1" xmlns:xlink="http://www.w3.org/1999/xlink" width="10px" height="6px" xmlns="http://www.w3.org/2000/svg">
  <g transform="matrix(1 0 0 1 -1244 -226 )">
    <path d="M 9.21225 1.306  C 9.32075 1.196625  9.375 1.068875  9.375 0.921875  C 9.375 0.774875000000002  9.32075 0.647124999999999  9.21225 0.537749999999999  C 9.102875 0.428374999999999  8.975125 0.375  8.828125 0.375  L 1.171875 0.375  C 1.024 0.375  0.89625 0.428374999999999  0.78775 0.537749999999999  C 0.678375 0.647124999999999  0.625 0.774875000000002  0.625 0.921875  C 0.625 1.068875  0.678375 1.196625  0.78775 1.306  L 4.615875 5.134125  C 4.724375 5.24175  4.852125 5.296875  5 5.296875  C 5.147 5.296875  5.27475 5.242625  5.384125 5.134125  L 9.21225 1.306  Z " fill-rule="nonzero" fill="#aebde4" stroke="none" fill-opacity="0.349019607843137" transform="matrix(1 0 0 1 1244 226 )" />
  </g>
</svg>