<?xml version="1.0" encoding="utf-8"?>
<svg version="1.1" xmlns:xlink="http://www.w3.org/1999/xlink" width="468px" height="32px" xmlns="http://www.w3.org/2000/svg">
  <g transform="matrix(1 0 0 1 -266 -418 )">
    <path d="M 267 422  A 3 3 0 0 1 270 419 L 730 419  A 3 3 0 0 1 733 422 L 733 446  A 3 3 0 0 1 730 449 L 270 449  A 3 3 0 0 1 267 446 L 267 422  Z " fill-rule="nonzero" fill="#e08300" stroke="none" fill-opacity="0.0980392156862745" />
    <path d="M 266.5 422  A 3.5 3.5 0 0 1 270 418.5 L 730 418.5  A 3.5 3.5 0 0 1 733.5 422 L 733.5 446  A 3.5 3.5 0 0 1 730 449.5 L 270 449.5  A 3.5 3.5 0 0 1 266.5 446 L 266.5 422  Z " stroke-width="1" stroke="#e08300" fill="none" stroke-opacity="0.498039215686275" />
  </g>
</svg>