<?xml version="1.0" encoding="utf-8"?>
<svg version="1.1" xmlns:xlink="http://www.w3.org/1999/xlink" width="140px" height="40px" xmlns="http://www.w3.org/2000/svg">
  <g transform="matrix(1 0 0 1 -261 -1063 )">
    <path d="M 262 1068  A 4 4 0 0 1 266 1064 L 396 1064  A 4 4 0 0 1 400 1068 L 400 1098  A 4 4 0 0 1 396 1102 L 266 1102  A 4 4 0 0 1 262 1098 L 262 1068  Z " fill-rule="nonzero" fill="#ffffff" stroke="none" />
    <path d="M 261.5 1068  A 4.5 4.5 0 0 1 266 1063.5 L 396 1063.5  A 4.5 4.5 0 0 1 400.5 1068 L 400.5 1098  A 4.5 4.5 0 0 1 396 1102.5 L 266 1102.5  A 4.5 4.5 0 0 1 261.5 1098 L 261.5 1068  Z " stroke-width="1" stroke="#1490ff" fill="none" stroke-opacity="0.498039215686275" />
  </g>
</svg>