<?xml version="1.0" encoding="utf-8"?>
<svg version="1.1" xmlns:xlink="http://www.w3.org/1999/xlink" width="221px" height="40px" xmlns="http://www.w3.org/2000/svg">
  <g transform="matrix(1 0 0 1 -1598 -6046 )">
    <path d="M 1599 6051  A 4 4 0 0 1 1603 6047 L 1814 6047  A 4 4 0 0 1 1818 6051 L 1818 6081  A 4 4 0 0 1 1814 6085 L 1603 6085  A 4 4 0 0 1 1599 6081 L 1599 6051  Z " fill-rule="nonzero" fill="#ffffff" stroke="none" />
    <path d="M 1598.5 6051  A 4.5 4.5 0 0 1 1603 6046.5 L 1814 6046.5  A 4.5 4.5 0 0 1 1818.5 6051 L 1818.5 6081  A 4.5 4.5 0 0 1 1814 6085.5 L 1603 6085.5  A 4.5 4.5 0 0 1 1598.5 6081 L 1598.5 6051  Z " stroke-width="1" stroke="#1490ff" fill="none" stroke-opacity="0.498039215686275" />
  </g>
</svg>