<?xml version="1.0" encoding="utf-8"?>
<svg version="1.1" xmlns:xlink="http://www.w3.org/1999/xlink" width="169px" height="32px" xmlns="http://www.w3.org/2000/svg">
  <g transform="matrix(1 0 0 1 -1264 -5791 )">
    <path d="M 1265 5795  A 3 3 0 0 1 1268 5792 L 1429 5792  A 3 3 0 0 1 1432 5795 L 1432 5819  A 3 3 0 0 1 1429 5822 L 1268 5822  A 3 3 0 0 1 1265 5819 L 1265 5795  Z " fill-rule="nonzero" fill="#ffffff" stroke="none" />
    <path d="M 1264.5 5795  A 3.5 3.5 0 0 1 1268 5791.5 L 1429 5791.5  A 3.5 3.5 0 0 1 1432.5 5795 L 1432.5 5819  A 3.5 3.5 0 0 1 1429 5822.5 L 1268 5822.5  A 3.5 3.5 0 0 1 1264.5 5819 L 1264.5 5795  Z " stroke-width="1" stroke-dasharray="9,4" stroke="#e3e6f8" fill="none" stroke-dashoffset="0.5" />
  </g>
</svg>