<?xml version="1.0" encoding="utf-8"?>
<svg version="1.1" xmlns:xlink="http://www.w3.org/1999/xlink" width="92px" height="32px" xmlns="http://www.w3.org/2000/svg">
  <g transform="matrix(1 0 0 1 -298 -6447 )">
    <path d="M 299 6451  A 3 3 0 0 1 302 6448 L 386 6448  A 3 3 0 0 1 389 6451 L 389 6475  A 3 3 0 0 1 386 6478 L 302 6478  A 3 3 0 0 1 299 6475 L 299 6451  Z " fill-rule="nonzero" fill="#ffffff" stroke="none" />
    <path d="M 298.5 6451  A 3.5 3.5 0 0 1 302 6447.5 L 386 6447.5  A 3.5 3.5 0 0 1 389.5 6451 L 389.5 6475  A 3.5 3.5 0 0 1 386 6478.5 L 302 6478.5  A 3.5 3.5 0 0 1 298.5 6475 L 298.5 6451  Z " stroke-width="1" stroke="#e08300" fill="none" stroke-opacity="0.498039215686275" />
  </g>
</svg>