<?xml version="1.0" encoding="utf-8"?>
<svg version="1.1" xmlns:xlink="http://www.w3.org/1999/xlink" width="66px" height="32px" xmlns="http://www.w3.org/2000/svg">
  <g transform="matrix(1 0 0 1 -699 -6447 )">
    <path d="M 700 6451  A 3 3 0 0 1 703 6448 L 761 6448  A 3 3 0 0 1 764 6451 L 764 6475  A 3 3 0 0 1 761 6478 L 703 6478  A 3 3 0 0 1 700 6475 L 700 6451  Z " fill-rule="nonzero" fill="#ffffff" stroke="none" />
    <path d="M 699.5 6451  A 3.5 3.5 0 0 1 703 6447.5 L 761 6447.5  A 3.5 3.5 0 0 1 764.5 6451 L 764.5 6475  A 3.5 3.5 0 0 1 761 6478.5 L 703 6478.5  A 3.5 3.5 0 0 1 699.5 6475 L 699.5 6451  Z " stroke-width="1" stroke-dasharray="9,4" stroke="#1490ff" fill="none" stroke-dashoffset="0.5" />
  </g>
</svg>