<?xml version="1.0" encoding="utf-8"?>
<svg version="1.1" xmlns:xlink="http://www.w3.org/1999/xlink" width="221px" height="40px" xmlns="http://www.w3.org/2000/svg">
  <g transform="matrix(1 0 0 1 -2473 -5559 )">
    <path d="M 2474 5564  A 4 4 0 0 1 2478 5560 L 2689 5560  A 4 4 0 0 1 2693 5564 L 2693 5594  A 4 4 0 0 1 2689 5598 L 2478 5598  A 4 4 0 0 1 2474 5594 L 2474 5564  Z " fill-rule="nonzero" fill="#1490ff" stroke="none" />
    <path d="M 2473.5 5564  A 4.5 4.5 0 0 1 2478 5559.5 L 2689 5559.5  A 4.5 4.5 0 0 1 2693.5 5564 L 2693.5 5594  A 4.5 4.5 0 0 1 2689 5598.5 L 2478 5598.5  A 4.5 4.5 0 0 1 2473.5 5594 L 2473.5 5564  Z " stroke-width="1" stroke="#1490ff" fill="none" stroke-opacity="0.498039215686275" />
  </g>
</svg>