<?xml version="1.0" encoding="utf-8"?>
<svg version="1.1" xmlns:xlink="http://www.w3.org/1999/xlink" width="14px" height="14px" xmlns="http://www.w3.org/2000/svg">
  <g transform="matrix(1 0 0 1 -1247 -157 )">
    <path d="M 1248 159  A 1 1 0 0 1 1249 158 L 1259 158  A 1 1 0 0 1 1260 159 L 1260 169  A 1 1 0 0 1 1259 170 L 1249 170  A 1 1 0 0 1 1248 169 L 1248 159  Z " fill-rule="nonzero" fill="#ffffff" stroke="none" />
    <path d="M 1247.5 159  A 1.5 1.5 0 0 1 1249 157.5 L 1259 157.5  A 1.5 1.5 0 0 1 1260.5 159 L 1260.5 169  A 1.5 1.5 0 0 1 1259 170.5 L 1249 170.5  A 1.5 1.5 0 0 1 1247.5 169 L 1247.5 159  Z " stroke-width="1" stroke="#aebde4" fill="none" stroke-opacity="0.349019607843137" />
  </g>
</svg>