<?xml version="1.0" encoding="utf-8"?>
<svg version="1.1" xmlns:xlink="http://www.w3.org/1999/xlink" width="22px" height="17px" xmlns="http://www.w3.org/2000/svg">
  <g transform="matrix(1 0 0 1 -386 -23 )">
    <path d="M 20.3174436877947 10.1661931818182  C 20.455735987428 9.98910984848485  20.5248821372446 9.83214962121212  20.5248821372446 9.6953125  C 20.5248821372446 9.41358901515152  20.3212851405622 9.27272727272727  19.9140911471975 9  L 7.37558931377685 9  C 7.06827309236948 9.27272727272727  6.73982888074035 9.35925662878788  6.39025667888947 9.53231534090909  C 6.04068447703859 9.7053740530303  5.76602060415575 9.91666666666667  5.56626506024096 10.1661931818182  L 2.17810371922472 14.5490056818182  C 2.03981141959141 14.7421875  1.97066526977475 14.9031723484848  1.97066526977475 15.0319602272727  C 1.97066526977475 15.3136837121212  2.17426226645713 15.4545454545455  2.5814562598219 15.4545454545455  L 15.1199580932425 15.4545454545455  C 15.4272743146499 15.4545454545455  15.7576392526628 15.3660037878788  16.1110529072813 15.1889204545455  C 16.4644665618998 15.0118371212121  16.7372097083988 14.7985321969697  16.9292823467784 14.5490056818182  L 20.3174436877947 10.1661931818182  Z M 5.76217915138816 8.14382102272727  C 6.31534834992142 7.86612215909091  6.85315173738432 7.72727272727273  7.37558931377685 7.72727272727273  L 16.2262964903091 7.72727272727273  L 16.2262964903091 5.79545454545455  C 16.2262964903091 5.47348484848485  16.1187358128165 5.1998106060606  15.9036144578313 4.97443181818182  C 15.6884931028462 4.74905303030303  15.4272743146499 4.63636363636364  15.1199580932425 4.63636363636364  L 8.48192771084337 4.63636363636364  C 8.17461148943601 4.63636363636364  7.91339270123974 4.52367424242424  7.69827134625458 4.29829545454545  C 7.48314999126943 4.07291666666667  7.37558931377685 3.79924242424242  7.37558931377685 3.47727272727273  L 7.37558931377685 2.70454545454545  C 7.37558931377685 2.38257575757576  7.26802863628427 2.10890151515151  7.05290728129911 1.88352272727273  C 6.83778592631395 1.65814393939394  6.57656713811769 1.54545454545455  6.26925091671032 1.54545454545455  L 2.5814562598219 1.54545454545455  C 2.27414003841453 1.54545454545455  2.01292125021826 1.65814393939394  1.79779989523311 1.88352272727273  C 1.58267854024795 2.10890151515151  1.47511786275537 2.38257575757576  1.47511786275537 2.70454545454545  L 1.47511786275537 13.0035511363636  L 4.42535358826611 9.20028409090909  C 4.76340143181421 8.77367424242424  5.2090099528549 8.42151988636364  5.76217915138816 8.14382102272727  Z M 21.8271346254584 8.87428977272727  C 21.9423782084861 9.13186553030303  22 9.40553977272727  22 9.6953125  C 22 10.194365530303  21.8232931726908 10.6773200757576  21.4698795180723 11.1441761363636  L 18.0701938187533 15.5269886363636  C 17.7398288807404 15.9535984848485  17.2942203596997 16.3057528409091  16.7333682556312 16.5834517045455  C 16.1725161515628 16.8611505681818  15.6347127640999 17  15.1199580932425 17  L 2.5814562598219 17  C 1.87462895058495 17  1.2676794133054 16.734375  0.760607647983237 16.203125  C 0.253535882661079 15.671875  0 15.0359848484848  0 14.2954545454545  L 0 2.70454545454545  C 0 1.96401515151515  0.253535882661079 1.328125  0.760607647983237 0.796875  C 1.2676794133054 0.265625  1.87462895058495 0  2.5814562598219 0  L 6.26925091671032 0  C 6.97607822594727 0  7.58302776322682 0.265625  8.09009952854898 0.796875  C 8.59717129387114 1.328125  8.85070717653222 1.96401515151515  8.85070717653222 2.70454545454545  L 8.85070717653222 3.09090909090909  L 15.1199580932425 3.09090909090909  C 15.8267854024795 3.09090909090909  16.433734939759 3.35653409090909  16.9408067050812 3.88778409090909  C 17.4478784704034 4.41903409090909  17.7014143530644 5.05492424242424  17.7014143530644 5.79545454545455  L 17.7014143530644 7.72727272727273  L 19.9140911471975 7.72727272727273  C 20.3289680460974 7.72727272727273  20.7092718700891 7.8258759469697  21.0550026191723 8.02308238636364  C 21.4007333682556 8.22028882575758  21.6581107036843 8.50402462121212  21.8271346254584 8.87428977272727  Z " fill-rule="nonzero" fill="#ffffff" stroke="none" fill-opacity="0.8" transform="matrix(1 0 0 1 386 23 )" />
  </g>
</svg>