<?xml version="1.0" encoding="utf-8"?>
<svg version="1.1" xmlns:xlink="http://www.w3.org/1999/xlink" width="32px" height="32px" xmlns="http://www.w3.org/2000/svg">
  <g transform="matrix(1 0 0 1 -15 -16 )">
    <path d="M 17 14.4038461538462  L 17 28.8653846153846  L 29 22.1538461538462  L 29 9.92307692307692  L 17 14.4038461538462  Z M 2.57692307692308 7.34615384615385  L 16 12.2307692307692  L 29.4230769230769 7.34615384615385  L 16 2.46153846153846  L 2.57692307692308 7.34615384615385  Z M 31.5576923076923 5.98076923076923  C 31.8525641025641 6.40384615384615  32 6.87179487179487  32 7.38461538461538  L 32 22.1538461538462  C 32 22.6025641025641  31.8846153846154 23.0192307692308  31.6538461538462 23.4038461538462  C 31.4230769230769 23.7884615384615  31.1089743589744 24.0897435897436  30.7115384615385 24.3076923076923  L 17.1730769230769 31.6923076923077  C 16.8141025641026 31.8974358974359  16.4230769230769 32  16 32  C 15.5769230769231 32  15.1858974358974 31.8974358974359  14.8269230769231 31.6923076923077  L 1.28846153846154 24.3076923076923  C 0.891025641025641 24.0897435897436  0.576923076923077 23.7884615384615  0.346153846153846 23.4038461538462  C 0.115384615384615 23.0192307692308  0 22.6025641025641  0 22.1538461538462  L 0 7.38461538461538  C 0 6.87179487179487  0.147435897435897 6.40384615384615  0.442307692307692 5.98076923076923  C 0.737179487179487 5.55769230769231  1.12820512820513 5.25641025641026  1.61538461538462 5.07692307692308  L 15.1538461538462 0.153846153846153  C 15.4358974358974 0.0512820512820475  15.7179487179487 0  16 0  C 16.2820512820513 0  16.5641025641026 0.0512820512820475  16.8461538461538 0.153846153846153  L 30.3846153846154 5.07692307692308  C 30.8717948717949 5.25641025641026  31.2628205128205 5.55769230769231  31.5576923076923 5.98076923076923  Z " fill-rule="nonzero" fill="#ffffff" stroke="none" transform="matrix(1 0 0 1 15 16 )" />
  </g>
</svg>