<?xml version="1.0" encoding="utf-8"?>
<svg version="1.1" xmlns:xlink="http://www.w3.org/1999/xlink" width="18px" height="14px" xmlns="http://www.w3.org/2000/svg">
  <g transform="matrix(1 0 0 1 -25 -18 )">
    <path d="M 16.6233630172865 8.37215909090909  C 16.7365112624411 8.22632575757576  16.7930853850183 8.09706439393939  16.7930853850183 7.984375  C 16.7930853850183 7.75236742424242  16.6265060240964 7.63636363636364  16.2933473022525 7.63636363636364  L 6.03457307490833 7.63636363636364  C 5.78313253012048 7.63636363636364  5.51440544787847 7.70762310606061  5.22839182818229 7.85014204545455  C 4.94237820848612 7.99266098484848  4.71765322158198 8.16666666666667  4.55421686746988 8.37215909090909  L 1.78208486118387 11.9815340909091  C 1.66893661602933 12.140625  1.61236249345207 12.2732007575758  1.61236249345207 12.3792613636364  C 1.61236249345207 12.6112689393939  1.77894185437402 12.7272727272727  2.11210057621792 12.7272727272727  L 12.3708748035621 12.7272727272727  C 12.6223153483499 12.7272727272727  12.8926139339969 12.6543560606061  13.1817705605029 12.5085227272727  C 13.4709271870089 12.3626893939394  13.6940806705081 12.1870265151515  13.8512310110005 11.9815340909091  L 16.6233630172865 8.37215909090909  Z M 4.71451021477213 6.70667613636364  C 5.16710319539026 6.47798295454546  5.60712414876899 6.36363636363636  6.03457307490833 6.36363636363636  L 13.2760607647983 6.36363636363636  L 13.2760607647983 4.77272727272727  C 13.2760607647983 4.50757575757576  13.1880565741226 4.28219696969697  13.0120481927711 4.09659090909091  C 12.8360398114196 3.91098484848485  12.6223153483499 3.81818181818182  12.3708748035621 3.81818181818182  L 6.93975903614458 3.81818181818182  C 6.68831849135673 3.81818181818182  6.47459402828706 3.72537878787879  6.29858564693557 3.53977272727273  C 6.12257726558408 3.35416666666667  6.03457307490833 3.12878787878788  6.03457307490833 2.86363636363636  L 6.03457307490833 2.22727272727273  C 6.03457307490833 1.96212121212121  5.94656888423258 1.73674242424242  5.77056050288109 1.55113636363636  C 5.5945521215296 1.3655303030303  5.38082765845993 1.27272727272727  5.12938711367208 1.27272727272727  L 2.11210057621792 1.27272727272727  C 1.86066003143007 1.27272727272727  1.6469355683604 1.3655303030303  1.47092718700891 1.55113636363636  C 1.29491880565741 1.73674242424242  1.20691461498167 1.96212121212121  1.20691461498167 2.22727272727273  L 1.20691461498167 10.7088068181818  L 3.620743844945 7.57670454545455  C 3.89732844421163 7.22537878787879  4.26191723415401 6.93536931818182  4.71451021477213 6.70667613636364  Z M 17.8585646935568 7.30823863636364  C 17.9528548978523 7.52035984848485  18 7.74573863636364  18 7.984375  C 18 8.39535984848485  17.855421686747 8.79308712121212  17.566265060241 9.17755681818182  L 14.7847040335254 12.7869318181818  C 14.5144054478785 13.1382575757576  14.1498166579361 13.4282670454545  13.6909376636983 13.6569602272727  C 13.2320586694605 13.8856534090909  12.7920377160817 14  12.3708748035621 14  L 2.11210057621792 14  C 1.53378732320587 14  1.03719224724987 13.78125  0.622315348349921 13.34375  C 0.207438449449974 12.90625  0 12.3825757575758  0 11.7727272727273  L 0 2.22727272727273  C 0 1.61742424242424  0.207438449449974 1.09375  0.622315348349921 0.65625  C 1.03719224724987 0.21875  1.53378732320587 0  2.11210057621792 0  L 5.12938711367208 0  C 5.70770036668413 0  6.20429544264013 0.21875  6.61917234154007 0.65625  C 7.03404924044002 1.09375  7.24148768989 1.61742424242424  7.24148768989 2.22727272727273  L 7.24148768989 2.54545454545454  L 12.3708748035621 2.54545454545454  C 12.9491880565741 2.54545454545454  13.4457831325301 2.76420454545454  13.8606600314301 3.20170454545454  C 14.27553693033 3.63920454545454  14.48297537978 4.16287878787879  14.48297537978 4.77272727272727  L 14.48297537978 6.36363636363636  L 16.2933473022525 6.36363636363636  C 16.6327920377161 6.36363636363636  16.943949711891 6.44483901515152  17.2268203247774 6.60724431818182  C 17.5096909376637 6.76964962121212  17.7202723939235 7.00331439393939  17.8585646935568 7.30823863636364  Z " fill-rule="nonzero" fill="#ffffff" stroke="none" fill-opacity="0.749019607843137" transform="matrix(1 0 0 1 25 18 )" />
  </g>
</svg>