<?xml version="1.0" encoding="utf-8"?>
<svg version="1.1" xmlns:xlink="http://www.w3.org/1999/xlink" width="830px" height="181px" xmlns="http://www.w3.org/2000/svg">
  <g transform="matrix(1 0 0 1 -66 -939 )">
    <path d="M 829 180  L 1.2612201430093 180  C 1.2612201430093 180  0 89.7153258283993  0 90.117933071082  C 12.2592227285509 89.7374938458324  45.6021124419677 87.9035932363268  71.2168974085908 87.9035932363268  C 115.149399056747 87.9035932363268  111.575941984888 116.086100224118  147.73091941782 116.086100224118  C 183.885896850753 116.086100224118  170.677909746279 63.954052304087  225.926568284396 64.4181707465012  C 265.865206146356 64.7536767820703  271.682136077976 82.3492954898689  295.714082864242 82.535496667224  C 339.015974440894 82.8710027027928  335.232314011867 -0.334494118303836  378.113798874182 0.00101191726525939  C 420.995283736498 0.336517952834354  398.747433223407 86.4981923069004  447.901313454029 91.9296656631541  C 475.227749885897 94.9492199832748  486.368527815813 91.4264066098008  522.733708605913 93.9427018765677  C 559.098889396014 96.4589971433347  558.468279324509 147.288161532029  600.929357472488 147.623667567597  C 643.390435620467 147.959173603166  634.28030170123 129.362958399894  676.602566053045 129.506341646875  C 722.334693691877 129.661277141292  724.528931487398 148.965691709873  758.161468634312 149.636703781011  C 786.358630967931 150.199273182631  808.946599726152 115.079582117411  827.108169785486 116.086100224118  C 827.61265784269 116.690011088141  829 180  829 180  Z " fill-rule="nonzero" fill="#1890ff" stroke="none" transform="matrix(1 0 0 1 66 939 )" />
  </g>
</svg>