<?xml version="1.0" encoding="utf-8"?>
<svg version="1.1" xmlns:xlink="http://www.w3.org/1999/xlink" width="829px" height="153px" xmlns="http://www.w3.org/2000/svg">
  <g transform="matrix(1 0 0 1 -65 -939 )">
    <path d="M 0 89.4570044872446  C 0 89.4570044872446  27.5193285859613 88.1118016274979  71.4242115971515 88.1118016274979  C 115.329094608342 88.1118016274979  111.757884028484 116.361061682178  147.89013224822 116.361061682178  C 184.022380467955 116.361061682178  170.822696705818 64.1055338288896  226.036622583927 64.5707515819309  C 265.9501525941 64.9070522968678  271.763425650513 82.544347975174  295.780264496439 82.7309901885111  C 339.05493387589 83.067290903448  335.273652085453 -0.3352864008466  378.128179043744 0.00101431409029829  C 420.982706002035 0.337315029027197  398.748841838083 86.7030718663856  447.871820956256 92.1474102067379  C 475.181078331638 95.1741166411682  486.31485249237 91.6429591343328  522.657171922686 94.1652144963579  C 558.999491353001 96.6874698583831  558.369277721261 147.637028171288  600.803662258393 147.973328886225  C 643.238046795524 148.309629601162  634.133640059397 129.669367415203  676.429298067141 129.813090279645  C 722.132675714883 129.968392754169  724.325534079349 149.318531745972  757.936927772126 149.991133175845  C 791.548321464903 150.663734605719  805.270659055178 112.842411226726  826 114.343257392558  " stroke-width="2" stroke="#1890ff" fill="none" transform="matrix(1 0 0 1 66 940 )" />
  </g>
</svg>