<?xml version="1.0" encoding="utf-8"?>
<svg version="1.1" xmlns:xlink="http://www.w3.org/1999/xlink" width="40px" height="30px" xmlns="http://www.w3.org/2000/svg">
  <g transform="matrix(1 0 0 1 -59 -824 )">
    <path d="M 39.2774193548387 4.14141414141414  C 39.7591397849462 4.61279461279461  40 5.18518518518519  40 5.85858585858586  C 40 6.53198653198653  39.7591397849462 7.1043771043771  39.2774193548387 7.57575757575757  L 20.5935483870968 25.8585858585859  L 17.0838709677419 29.2929292929293  C 16.6021505376344 29.7643097643098  16.0172043010753 30  15.3290322580645 30  C 14.6408602150538 30  14.0559139784946 29.7643097643098  13.5741935483871 29.2929292929293  L 10.0645161290323 25.8585858585859  L 0.72258064516129 16.7171717171717  C 0.240860215053764 16.2457912457912  0 15.6734006734007  0 15  C 0 14.3265993265993  0.240860215053764 13.7542087542088  0.72258064516129 13.2828282828283  L 4.23225806451613 9.84848484848485  C 4.71397849462366 9.37710437710438  5.2989247311828 9.14141414141414  5.98709677419355 9.14141414141414  C 6.6752688172043 9.14141414141414  7.26021505376344 9.37710437710438  7.74193548387097 9.84848484848485  L 15.3290322580645 17.2979797979798  L 32.258064516129 0.707070707070707  C 32.7397849462366 0.235690235690235  33.3247311827957 0  34.0129032258065 0  C 34.7010752688172 0  35.2860215053763 0.235690235690235  35.7677419354839 0.707070707070707  L 39.2774193548387 4.14141414141414  Z " fill-rule="nonzero" fill="#09bb07" stroke="none" transform="matrix(1 0 0 1 59 824 )" />
  </g>
</svg>