<?xml version="1.0" encoding="utf-8"?>
<svg version="1.1" xmlns:xlink="http://www.w3.org/1999/xlink" width="14px" height="14px" xmlns="http://www.w3.org/2000/svg">
  <g transform="matrix(1 0 0 1 -481 -25 )">
    <path d="M 488 25  C 491.92 25  495 28.08  495 32  C 495 35.92  491.92 39  488 39  C 484.08 39  481 35.92  481 32  C 481 28.08  484.08 25  488 25  Z " fill-rule="nonzero" fill="#ffffff" stroke="none" fill-opacity="0" />
    <path d="M 488 25.5  C 491.64 25.5  494.5 28.36  494.5 32  C 494.5 35.64  491.64 38.5  488 38.5  C 484.36 38.5  481.5 35.64  481.5 32  C 481.5 28.36  484.36 25.5  488 25.5  Z " stroke-width="1" stroke="#d9d9d9" fill="none" />
  </g>
</svg>