<?xml version="1.0" encoding="utf-8"?>
<svg version="1.1" xmlns:xlink="http://www.w3.org/1999/xlink" width="8px" height="6px" xmlns="http://www.w3.org/2000/svg">
  <g transform="matrix(1 0 0 1 -463 -28 )">
    <path d="M 7.36980000000003 1.30600000000004  C 7.45659999999998 1.19662500000004  7.5 1.06887499999993  7.5 0.921875  C 7.5 0.774875000000065  7.45659999999998 0.64712499999996  7.36980000000003 0.53774999999996  C 7.28230000000003 0.42837499999996  7.18010000000004 0.375  7.0625 0.375  L 0.9375 0.375  C 0.819200000000001 0.375  0.717000000000007 0.42837499999996  0.630199999999968 0.53774999999996  C 0.542699999999968 0.64712499999996  0.5 0.774875000000065  0.5 0.921875  C 0.5 1.06887499999993  0.542699999999968 1.19662500000004  0.630199999999968 1.30600000000004  L 3.69269999999997 5.13412500000004  C 3.77950000000001 5.24174999999991  3.8817 5.296875  4 5.296875  C 4.11760000000004 5.296875  4.21980000000003 5.24262500000009  4.30730000000003 5.13412500000004  L 7.36980000000003 1.30600000000004  Z " fill-rule="nonzero" fill="#a3a4b5" stroke="none" transform="matrix(1 0 0 1 463 28 )" />
  </g>
</svg>