<?xml version="1.0" encoding="utf-8"?>
<svg version="1.1" xmlns:xlink="http://www.w3.org/1999/xlink" width="60px" height="26px" xmlns="http://www.w3.org/2000/svg">
  <g transform="matrix(1 0 0 1 -910 -283 )">
    <path d="M 911 285  A 1 1 0 0 1 912 284 L 968 284  A 1 1 0 0 1 969 285 L 969 307  A 1 1 0 0 1 968 308 L 912 308  A 1 1 0 0 1 911 307 L 911 285  Z " fill-rule="nonzero" fill="#ffffff" stroke="none" />
    <path d="M 910.5 285  A 1.5 1.5 0 0 1 912 283.5 L 968 283.5  A 1.5 1.5 0 0 1 969.5 285 L 969.5 307  A 1.5 1.5 0 0 1 968 308.5 L 912 308.5  A 1.5 1.5 0 0 1 910.5 307 L 910.5 285  Z " stroke-width="1" stroke="#1490ff" fill="none" stroke-opacity="0.498039215686275" />
  </g>
</svg>