<?xml version="1.0" encoding="utf-8"?>
<svg version="1.1" xmlns:xlink="http://www.w3.org/1999/xlink" width="8px" height="5px" xmlns="http://www.w3.org/2000/svg">
  <g transform="matrix(1 0 0 1 -356 -223 )">
    <path d="M 7.36980000000003 1.08833333333337  C 7.45659999999998 0.997187500000033  7.5 0.890729166666612  7.5 0.768229166666667  C 7.5 0.645729166666721  7.45659999999998 0.5392708333333  7.36980000000003 0.448124999999967  C 7.28230000000003 0.356979166666633  7.18010000000004 0.3125  7.0625 0.3125  L 0.9375 0.3125  C 0.819200000000001 0.3125  0.717000000000007 0.356979166666633  0.630199999999968 0.448124999999967  C 0.542699999999968 0.5392708333333  0.5 0.645729166666721  0.5 0.768229166666667  C 0.5 0.890729166666612  0.542699999999968 0.997187500000033  0.630199999999968 1.08833333333337  L 3.69269999999997 4.27843750000003  C 3.77950000000001 4.36812499999993  3.8817 4.4140625  4 4.4140625  C 4.11760000000004 4.4140625  4.21980000000003 4.36885416666674  4.30730000000003 4.27843750000003  L 7.36980000000003 1.08833333333337  Z " fill-rule="nonzero" fill="#a3a4b5" stroke="none" transform="matrix(1 0 0 1 356 223 )" />
  </g>
</svg>