<?xml version="1.0" encoding="utf-8"?>
<svg version="1.1" xmlns:xlink="http://www.w3.org/1999/xlink" width="14px" height="11px" xmlns="http://www.w3.org/2000/svg">
  <g transform="matrix(1 0 0 1 -1026 -193 )">
    <path d="M 6.7470703125 7.94563802083333  C 6.91569010416667 7.74273003472222  7 7.48849826388889  7 7.18294270833333  C 7 6.87738715277778  6.9794921875 6.59689670138889  6.9384765625 6.34147135416667  C 6.8974609375 6.08604600694444  6.83024088541667 5.84016927083333  6.73681640625 5.60384114583333  C 6.64339192708333 5.36751302083333  6.50553385416667 5.18131510416667  6.3232421875 5.04524739583333  C 6.14095052083333 4.9091796875  5.919921875 4.84114583333333  5.66015625 4.84114583333333  C 5.6328125 4.86024305555556  5.564453125 4.90321180555556  5.455078125 4.97005208333333  C 5.345703125 5.03689236111111  5.26025390625 5.08821614583333  5.19873046875 5.1240234375  C 5.13720703125 5.15983072916667  5.05631510416667 5.20160590277778  4.9560546875 5.24934895833333  C 4.85579427083333 5.29709201388889  4.7578125 5.33170572916667  4.662109375 5.35319010416667  C 4.56640625 5.37467447916667  4.470703125 5.38541666666667  4.375 5.38541666666667  C 4.279296875 5.38541666666667  4.18359375 5.37467447916667  4.087890625 5.35319010416667  C 3.9921875 5.33170572916667  3.89420572916667 5.29709201388889  3.7939453125 5.24934895833333  C 3.69368489583333 5.20160590277778  3.61279296875 5.15983072916667  3.55126953125 5.1240234375  C 3.48974609375 5.08821614583333  3.404296875 5.03689236111111  3.294921875 4.97005208333333  C 3.185546875 4.90321180555556  3.1171875 4.86024305555556  3.08984375 4.84114583333333  C 2.830078125 4.84114583333333  2.60904947916667 4.9091796875  2.4267578125 5.04524739583333  C 2.24446614583333 5.18131510416667  2.10660807291667 5.36751302083333  2.01318359375 5.60384114583333  C 1.91975911458333 5.84016927083333  1.8525390625 6.08604600694444  1.8115234375 6.34147135416667  C 1.7705078125 6.59689670138889  1.75 6.87738715277778  1.75 7.18294270833333  C 1.75 7.48849826388889  1.83430989583333 7.74273003472222  2.0029296875 7.94563802083333  C 2.17154947916667 8.14854600694444  2.37890625 8.25  2.625 8.25  L 6.125 8.25  C 6.37109375 8.25  6.57845052083333 8.14854600694444  6.7470703125 7.94563802083333  Z M 5.47216796875 4.6083984375  C 5.77522786458333 4.29090711805555  5.9267578125 3.90776909722222  5.9267578125 3.458984375  C 5.9267578125 3.01019965277778  5.77522786458333 2.62706163194444  5.47216796875 2.3095703125  C 5.16910807291667 1.99207899305555  4.80338541666667 1.83333333333333  4.375 1.83333333333333  C 3.94661458333333 1.83333333333333  3.58089192708333 1.99207899305555  3.27783203125 2.3095703125  C 2.97477213541667 2.62706163194444  2.8232421875 3.01019965277778  2.8232421875 3.458984375  C 2.8232421875 3.90776909722222  2.97477213541667 4.29090711805555  3.27783203125 4.6083984375  C 3.58089192708333 4.92588975694444  3.94661458333333 5.08463541666667  4.375 5.08463541666667  C 4.80338541666667 5.08463541666667  5.16910807291667 4.92588975694444  5.47216796875 4.6083984375  Z M 12.1884765625 7.26888020833333  C 12.2294921875 7.22591145833333  12.25 7.17100694444444  12.25 7.10416666666667  L 12.25 6.64583333333333  C 12.25 6.57899305555555  12.2294921875 6.52408854166667  12.1884765625 6.48111979166667  C 12.1474609375 6.43815104166667  12.0950520833333 6.41666666666667  12.03125 6.41666666666667  L 8.09375 6.41666666666667  C 8.02994791666667 6.41666666666667  7.9775390625 6.43815104166667  7.9365234375 6.48111979166667  C 7.8955078125 6.52408854166667  7.875 6.57899305555555  7.875 6.64583333333333  L 7.875 7.10416666666667  C 7.875 7.17100694444444  7.8955078125 7.22591145833333  7.9365234375 7.26888020833333  C 7.9775390625 7.31184895833333  8.02994791666667 7.33333333333333  8.09375 7.33333333333333  L 12.03125 7.33333333333333  C 12.0950520833333 7.33333333333333  12.1474609375 7.31184895833333  12.1884765625 7.26888020833333  Z M 12.17822265625 5.4248046875  C 12.22607421875 5.37467447916667  12.25 5.31380208333333  12.25 5.2421875  L 12.25 4.84114583333333  C 12.25 4.76953125  12.22607421875 4.70865885416667  12.17822265625 4.65852864583333  C 12.13037109375 4.6083984375  12.072265625 4.58333333333333  12.00390625 4.58333333333333  L 8.12109375 4.58333333333333  C 8.052734375 4.58333333333333  7.99462890625 4.6083984375  7.94677734375 4.65852864583333  C 7.89892578125 4.70865885416667  7.875 4.76953125  7.875 4.84114583333333  L 7.875 5.2421875  C 7.875 5.31380208333333  7.89892578125 5.37467447916667  7.94677734375 5.4248046875  C 7.99462890625 5.47493489583333  8.052734375 5.5  8.12109375 5.5  L 12.00390625 5.5  C 12.072265625 5.5  12.13037109375 5.47493489583333  12.17822265625 5.4248046875  Z M 12.1884765625 3.60221354166667  C 12.2294921875 3.55924479166667  12.25 3.50434027777778  12.25 3.4375  L 12.25 2.97916666666667  C 12.25 2.91232638888889  12.2294921875 2.857421875  12.1884765625 2.814453125  C 12.1474609375 2.771484375  12.0950520833333 2.75  12.03125 2.75  L 8.09375 2.75  C 8.02994791666667 2.75  7.9775390625 2.771484375  7.9365234375 2.814453125  C 7.8955078125 2.857421875  7.875 2.91232638888889  7.875 2.97916666666667  L 7.875 3.4375  C 7.875 3.50434027777778  7.8955078125 3.55924479166667  7.9365234375 3.60221354166667  C 7.9775390625 3.64518229166667  8.02994791666667 3.66666666666667  8.09375 3.66666666666667  L 12.03125 3.66666666666667  C 12.0950520833333 3.66666666666667  12.1474609375 3.64518229166667  12.1884765625 3.60221354166667  Z M 13.6787109375 0.336588541666667  C 13.8929036458333 0.560980902777777  14 0.830729166666667  14 1.14583333333333  L 14 9.85416666666667  C 14 10.1692708333333  13.8929036458333 10.4390190972222  13.6787109375 10.6634114583333  C 13.4645182291667 10.8878038194444  13.20703125 11  12.90625 11  L 10.5 11  L 10.5 10.3125  C 10.5 10.2456597222222  10.4794921875 10.1907552083333  10.4384765625 10.1477864583333  C 10.3974609375 10.1048177083333  10.3450520833333 10.0833333333333  10.28125 10.0833333333333  L 9.84375 10.0833333333333  C 9.77994791666667 10.0833333333333  9.7275390625 10.1048177083333  9.6865234375 10.1477864583333  C 9.6455078125 10.1907552083333  9.625 10.2456597222222  9.625 10.3125  L 9.625 11  L 4.375 11  L 4.375 10.3125  C 4.375 10.2456597222222  4.3544921875 10.1907552083333  4.3134765625 10.1477864583333  C 4.2724609375 10.1048177083333  4.22005208333333 10.0833333333333  4.15625 10.0833333333333  L 3.71875 10.0833333333333  C 3.65494791666667 10.0833333333333  3.6025390625 10.1048177083333  3.5615234375 10.1477864583333  C 3.5205078125 10.1907552083333  3.5 10.2456597222222  3.5 10.3125  L 3.5 11  L 1.09375 11  C 0.79296875 11  0.535481770833333 10.8878038194444  0.3212890625 10.6634114583333  C 0.107096354166667 10.4390190972222  0 10.1692708333333  0 9.85416666666667  L 0 1.14583333333333  C 0 0.830729166666667  0.107096354166667 0.560980902777777  0.3212890625 0.336588541666667  C 0.535481770833333 0.112196180555554  0.79296875 0  1.09375 0  L 12.90625 0  C 13.20703125 0  13.4645182291667 0.112196180555554  13.6787109375 0.336588541666667  Z " fill-rule="nonzero" fill="#1490ff" stroke="none" transform="matrix(1 0 0 1 1026 193 )" />
  </g>
</svg>