<?xml version="1.0" encoding="utf-8"?>
<svg version="1.1" xmlns:xlink="http://www.w3.org/1999/xlink" width="14px" height="16px" xmlns="http://www.w3.org/2000/svg">
  <g transform="matrix(1 0 0 1 -1026 -165 )">
    <path d="M 13.90703125 11.5677083333333  C 13.9690104166667 12.0920138888889  14 12.6493055555556  14 13.2395833333333  C 14 13.9965277777778  13.7721354166667 14.6458333333333  13.31640625 15.1875  C 12.8606770833333 15.7291666666667  12.3119791666667 16  11.6703125 16  L 2.3296875 16  C 1.68802083333333 16  1.13932291666667 15.7291666666667  0.68359375 15.1875  C 0.227864583333333 14.6458333333333  0 13.9965277777778  0 13.2395833333333  C 0 12.6493055555556  0.0309895833333334 12.0920138888889  0.0929687500000001 11.5677083333333  C 0.154947916666667 11.0434027777778  0.269791666666667 10.515625  0.4375 9.984375  C 0.605208333333334 9.453125  0.818489583333333 8.99826388888889  1.07734375 8.61979166666667  C 1.33619791666667 8.24131944444444  1.67890625 7.93229166666667  2.10546875 7.69270833333333  C 2.53203125 7.453125  3.02239583333333 7.33333333333333  3.5765625 7.33333333333333  C 4.53177083333333 8.22222222222222  5.67291666666667 8.66666666666667  7 8.66666666666667  C 8.32708333333334 8.66666666666667  9.46822916666667 8.22222222222222  10.4234375 7.33333333333333  C 10.9776041666667 7.33333333333333  11.46796875 7.453125  11.89453125 7.69270833333333  C 12.32109375 7.93229166666667  12.6638020833333 8.24131944444444  12.92265625 8.61979166666667  C 13.1815104166667 8.99826388888889  13.3947916666667 9.453125  13.5625 9.984375  C 13.7302083333333 10.515625  13.8450520833333 11.0434027777778  13.90703125 11.5677083333333  Z M 9.96953125 1.171875  C 10.78984375 1.953125  11.2 2.89583333333333  11.2 4  C 11.2 5.10416666666667  10.78984375 6.046875  9.96953125 6.828125  C 9.14921875 7.609375  8.159375 8  7 8  C 5.840625 8  4.85078125 7.609375  4.03046875 6.828125  C 3.21015625 6.046875  2.8 5.10416666666667  2.8 4  C 2.8 2.89583333333333  3.21015625 1.953125  4.03046875 1.171875  C 4.85078125 0.390625  5.840625 0  7 0  C 8.159375 0  9.14921875 0.390625  9.96953125 1.171875  Z " fill-rule="nonzero" fill="#1490ff" stroke="none" transform="matrix(1 0 0 1 1026 165 )" />
  </g>
</svg>