<?xml version="1.0" encoding="utf-8"?>
<svg version="1.1" xmlns:xlink="http://www.w3.org/1999/xlink" width="80px" height="26px" xmlns="http://www.w3.org/2000/svg">
  <g transform="matrix(1 0 0 1 -1026 -217 )">
    <path d="M 1027 221  A 3 3 0 0 1 1030 218 L 1102 218  A 3 3 0 0 1 1105 221 L 1105 239  A 3 3 0 0 1 1102 242 L 1030 242  A 3 3 0 0 1 1027 239 L 1027 221  Z " fill-rule="nonzero" fill="#ffffff" stroke="none" />
    <path d="M 1026.5 221  A 3.5 3.5 0 0 1 1030 217.5 L 1102 217.5  A 3.5 3.5 0 0 1 1105.5 221 L 1105.5 239  A 3.5 3.5 0 0 1 1102 242.5 L 1030 242.5  A 3.5 3.5 0 0 1 1026.5 239 L 1026.5 221  Z " stroke-width="1" stroke="#1490ff" fill="none" stroke-opacity="0.498039215686275" />
  </g>
</svg>