<?xml version="1.0" encoding="utf-8"?>
<svg version="1.1" xmlns:xlink="http://www.w3.org/1999/xlink" width="12px" height="10px" xmlns="http://www.w3.org/2000/svg">
  <g transform="matrix(1 0 0 1 -465 -54 )">
    <path d="M 471 54  C 474.36 54  477 56.2  477 59  C 477 61.8  474.36 64  471 64  C 467.64 64  465 61.8  465 59  C 465 56.2  467.64 54  471 54  Z " fill-rule="nonzero" fill="#ffffff" stroke="none" fill-opacity="0" />
    <path d="M 471 54.5  C 474.08 54.5  476.5 56.48  476.5 59  C 476.5 61.52  474.08 63.5  471 63.5  C 467.92 63.5  465.5 61.52  465.5 59  C 465.5 56.48  467.92 54.5  471 54.5  Z " stroke-width="1" stroke="#1890ff" fill="none" />
  </g>
</svg>