<?xml version="1.0" encoding="utf-8"?>
<svg version="1.1" xmlns:xlink="http://www.w3.org/1999/xlink" width="10px" height="8px" xmlns="http://www.w3.org/2000/svg">
  <g transform="matrix(1 0 0 1 -466 -55 )">
    <path d="M 471 55  C 473.8 55  476 56.76  476 59  C 476 61.24  473.8 63  471 63  C 468.2 63  466 61.24  466 59  C 466 56.76  468.2 55  471 55  Z " fill-rule="nonzero" fill="#ffffff" stroke="none" />
    <path d="M 471 55.5  C 473.52 55.5  475.5 57.04  475.5 59  C 475.5 60.96  473.52 62.5  471 62.5  C 468.48 62.5  466.5 60.96  466.5 59  C 466.5 57.04  468.48 55.5  471 55.5  Z " stroke-width="1" stroke="#1890ff" fill="none" />
  </g>
</svg>