<?xml version="1.0" encoding="utf-8"?>
<svg version="1.1" xmlns:xlink="http://www.w3.org/1999/xlink" width="269px" height="32px" xmlns="http://www.w3.org/2000/svg">
  <g transform="matrix(1 0 0 1 -210 -16 )">
    <path d="M 212 20  A 2 2 0 0 1 214 18 L 475 18  A 2 2 0 0 1 477 20 L 477 44  A 2 2 0 0 1 475 46 L 214 46  A 2 2 0 0 1 212 44 L 212 20  Z " fill-rule="nonzero" fill="#ffffff" stroke="none" />
    <path d="M 211 20  A 3 3 0 0 1 214 17 L 475 17  A 3 3 0 0 1 478 20 L 478 44  A 3 3 0 0 1 475 47 L 214 47  A 3 3 0 0 1 211 44 L 211 20  Z " stroke-width="2" stroke="#aebde4" fill="none" stroke-opacity="0.349019607843137" />
  </g>
</svg>