<?xml version="1.0" encoding="utf-8"?>
<svg version="1.1" xmlns:xlink="http://www.w3.org/1999/xlink" width="14px" height="14px" xmlns="http://www.w3.org/2000/svg">
  <g transform="matrix(1 0 0 1 -1247 -155 )">
    <path d="M 1248 162  A 6 6 0 0 1 1254 156 A 6 6 0 0 1 1260 162 A 6 6 0 0 1 1254 168 A 6 6 0 0 1 1248 162 Z " fill-rule="nonzero" fill="#ffffff" stroke="none" />
    <path d="M 1247.5 162  A 6.5 6.5 0 0 1 1254 155.5 A 6.5 6.5 0 0 1 1260.5 162 A 6.5 6.5 0 0 1 1254 168.5 A 6.5 6.5 0 0 1 1247.5 162 Z " stroke-width="1" stroke="#aebde4" fill="none" stroke-opacity="0.349019607843137" />
  </g>
</svg>