<?xml version="1.0" encoding="utf-8"?>
<svg version="1.1" xmlns:xlink="http://www.w3.org/1999/xlink" width="16px" height="18px" xmlns="http://www.w3.org/2000/svg">
  <g transform="matrix(1 0 0 1 -101 -906 )">
    <path d="M 15.6363636363636 1.17613636363649  C 15.6363636363636 0.752516335227369  15.3310965909091 0.409090909090992  14.9545454545455 0.409090909090992  L 1.0625 0.409090909090992  C 0.685948863636339 0.409090909090992  0.380681818181781 0.752516335227369  0.380681818181781 1.17613636363649  C 0.380681818181781 1.59975639204561  0.685948863636339 1.94318181818198  1.0625 2  L 14.9545454545455 2  C 15.3310965909091 1.94318181818198  15.6363636363636 1.59975639204561  15.6363636363636 1.17613636363649  Z M 15.6193181818182 9  C 15.6193181818182 8.57637997159088  15.3140511363637 8.2329545454545  14.9375 8.2329545454545  L 7.0625 8.2329545454545  C 6.68594886363634 8.2329545454545  6.38068181818178 8.57637997159088  6.38068181818178 9  C 6.38068181818178 9.42362002840912  6.68594886363634 9.7670454545455  7.0625 9.7670454545455  L 14.9375 9.7670454545455  C 15.3140511363637 9.7670454545455  15.6193181818182 9.42362002840912  15.6193181818182 9  Z M 15.6193181818182 16.8238636363635  C 15.6193181818182 16.4002436079544  15.3140511363637 16.056818181818  14.9375 16  L 1.0454545454545 16  C 0.668903409090944 16.056818181818  0.363636363636438 16.4002436079544  0.363636363636438 16.8238636363635  C 0.363636363636438 17.2474836647726  0.668903409090944 17.590909090909  1.0454545454545 17.590909090909  L 14.9375 17.590909090909  C 15.3140511363637 17.590909090909  15.6193181818182 17.2474836647726  15.6193181818182 16.8238636363635  Z M 3.96022727272733 4.9863579545455  C 3.81556517564539 4.98636219607886  3.67682943742142 5.05101576631228  3.57453977272735 5.16609588068195  L 0.552312500000021 8.56610156249997  C 0.339295454545512 8.80572656250013  0.339295454545512 9.19427343749987  0.552312500000021 9.43389843749992  L 3.57453977272735 12.833904119318  C 3.78753977272724 13.0735482954545  4.13291477272727 13.0735482954545  4.34591477272731 12.833904119318  C 4.44820820772247 12.7188282465374  4.50567804792986 12.5627505410353  4.50568181818178 12.4000056818181  L 4.50568181818178 5.59999431818187  C 4.50568181818178 5.26109446022735  4.26147159090902 4.9863579545455  3.96022727272733 4.9863579545455  Z " fill-rule="nonzero" fill="#ffffff" stroke="none" transform="matrix(1 0 0 1 101 906 )" />
  </g>
</svg>