<?xml version="1.0" encoding="utf-8"?>
<svg version="1.1" xmlns:xlink="http://www.w3.org/1999/xlink" width="15px" height="12px" xmlns="http://www.w3.org/2000/svg">
  <g transform="matrix(1 0 0 1 -23 -15 )">
    <path d="M 13.8528025144054 7.17613636363636  C 13.9470927187009 7.05113636363636  13.9942378208486 6.94034090909091  13.9942378208486 6.84375  C 13.9942378208486 6.64488636363636  13.855421686747 6.54545454545454  13.5777894185437 6.54545454545454  L 5.02881089575694 6.54545454545454  C 4.81927710843373 6.54545454545454  4.59533787323206 6.60653409090909  4.35699319015191 6.72869318181818  C 4.11864850707177 6.85085227272727  3.93137768465165 7  3.79518072289157 7.17613636363636  L 1.48507071765322 10.2698863636364  C 1.39078051335778 10.40625  1.34363541121006 10.5198863636364  1.34363541121006 10.6107954545455  C 1.34363541121006 10.8096590909091  1.48245154531168 10.9090909090909  1.76008381351493 10.9090909090909  L 10.3090623363017 10.9090909090909  C 10.5185961236249 10.9090909090909  10.7438449449974 10.8465909090909  10.9848088004191 10.7215909090909  C 11.2257726558408 10.5965909090909  11.4117338920901 10.4460227272727  11.5426925091671 10.2698863636364  L 13.8528025144054 7.17613636363636  Z M 3.92875851231011 5.74857954545454  C 4.30591932949188 5.55255681818182  4.67260345730749 5.45454545454546  5.02881089575694 5.45454545454546  L 11.0633839706653 5.45454545454546  L 11.0633839706653 4.09090909090909  C 11.0633839706653 3.86363636363636  10.9900471451021 3.67045454545454  10.8433734939759 3.51136363636364  C 10.6966998428497 3.35227272727273  10.5185961236249 3.27272727272727  10.3090623363017 3.27272727272727  L 5.78313253012048 3.27272727272727  C 5.57359874279728 3.27272727272727  5.39549502357255 3.19318181818182  5.24882137244631 3.03409090909091  C 5.10214772132006 2.875  5.02881089575694 2.68181818181818  5.02881089575694 2.45454545454546  L 5.02881089575694 1.90909090909091  C 5.02881089575694 1.68181818181818  4.95547407019382 1.48863636363636  4.80880041906757 1.32954545454546  C 4.66212676794133 1.17045454545455  4.48402304871661 1.09090909090909  4.2744892613934 1.09090909090909  L 1.76008381351493 1.09090909090909  C 1.55055002619172 1.09090909090909  1.372446306967 1.17045454545455  1.22577265584075 1.32954545454546  C 1.07909900471451 1.48863636363636  1.00576217915139 1.68181818181818  1.00576217915139 1.90909090909091  L 1.00576217915139 9.17897727272727  L 3.01728653745416 6.49431818181818  C 3.24777370350969 6.19318181818182  3.55159769512834 5.94460227272727  3.92875851231011 5.74857954545454  Z M 14.8821372446307 6.26420454545454  C 14.9607124148769 6.44602272727273  15 6.63920454545454  15 6.84375  C 15 7.19602272727273  14.8795180722892 7.53693181818182  14.6385542168675 7.86647727272727  L 12.3205866946045 10.9602272727273  C 12.0953378732321 11.2613636363636  11.7915138816134 11.5099431818182  11.4091147197486 11.7059659090909  C 11.0267155578837 11.9019886363636  10.6600314300681 12  10.3090623363017 12  L 1.76008381351493 12  C 1.27815610267156 12  0.864326872708224 11.8125  0.518596123624935 11.4375  C 0.172865374541645 11.0625  0 10.6136363636364  0 10.0909090909091  L 0 1.90909090909091  C 0 1.38636363636363  0.172865374541645 0.9375  0.518596123624935 0.5625  C 0.864326872708224 0.1875  1.27815610267156 0  1.76008381351493 0  L 4.2744892613934 0  C 4.75641697223677 0  5.1702462022001 0.1875  5.51597695128339 0.5625  C 5.86170770036668 0.9375  6.03457307490833 1.38636363636363  6.03457307490833 1.90909090909091  L 6.03457307490833 2.18181818181818  L 10.3090623363017 2.18181818181818  C 10.7909900471451 2.18181818181818  11.2048192771084 2.36931818181818  11.5505500261917 2.74431818181818  C 11.896280775275 3.11931818181818  12.0691461498167 3.56818181818182  12.0691461498167 4.09090909090909  L 12.0691461498167 5.45454545454546  L 13.5777894185437 5.45454545454546  C 13.8606600314301 5.45454545454546  14.1199580932425 5.52414772727273  14.3556836039811 5.66335227272727  C 14.5914091147198 5.80255681818182  14.7668936616029 6.00284090909091  14.8821372446307 6.26420454545454  Z " fill-rule="nonzero" fill="#ffffff" stroke="none" transform="matrix(1 0 0 1 23 15 )" />
  </g>
</svg>