<?xml version="1.0" encoding="utf-8"?>
<svg version="1.1" xmlns:xlink="http://www.w3.org/1999/xlink" width="14px" height="10px" xmlns="http://www.w3.org/2000/svg">
  <g transform="matrix(1 0 0 1 -629 -424 )">
    <path d="M 2.9599609375 6.70625000000007  C 3.17415364583331 6.51041666666674  3.28125 6.27499999999998  3.28125 6  C 3.28125 5.72500000000002  3.17415364583331 5.48958333333337  2.9599609375 5.29375000000005  C 2.74576822916669 5.09791666666672  2.48828125 5  2.1875 5  C 1.88671875 5  1.62923177083331 5.09791666666672  1.4150390625 5.29375000000005  C 1.20084635416669 5.48958333333337  1.09375 5.72500000000002  1.09375 6  C 1.09375 6.27499999999998  1.20084635416669 6.51041666666674  1.4150390625 6.70625000000007  C 1.62923177083331 6.90208333333328  1.88671875 7  2.1875 7  C 2.48828125 7  2.74576822916669 6.90208333333328  2.9599609375 6.70625000000007  Z M 4.1357421875 1.76874999999995  L 3.52734375 4  L 10.47265625 4  L 9.8642578125 1.76874999999995  C 9.85514322916669 1.73541666666665  9.8232421875 1.69895833333328  9.7685546875 1.65937499999995  C 9.7138671875 1.61979166666663  9.666015625 1.60000000000002  9.625 1.60000000000002  L 4.375 1.60000000000002  C 4.333984375 1.60000000000002  4.2861328125 1.61979166666663  4.2314453125 1.65937499999995  C 4.1767578125 1.69895833333328  4.14485677083331 1.73541666666665  4.1357421875 1.76874999999995  Z M 12.5849609375 6.70625000000007  C 12.7991536458333 6.51041666666674  12.90625 6.27499999999998  12.90625 6  C 12.90625 5.72500000000002  12.7991536458333 5.48958333333337  12.5849609375 5.29375000000005  C 12.3707682291667 5.09791666666672  12.11328125 5  11.8125 5  C 11.51171875 5  11.2542317708333 5.09791666666672  11.0400390625 5.29375000000005  C 10.8258463541667 5.48958333333337  10.71875 5.72500000000002  10.71875 6  C 10.71875 6.27499999999998  10.8258463541667 6.51041666666674  11.0400390625 6.70625000000007  C 11.2542317708333 6.90208333333328  11.51171875 7  11.8125 7  C 12.11328125 7  12.3707682291667 6.90208333333328  12.5849609375 6.70625000000007  Z M 13.55224609375 4.40937499999995  C 13.8507486979167 4.68229166666674  14 5.01249999999993  14 5.40000000000009  L 14 7.80000000000007  C 14 7.85833333333323  13.9794921875 7.90625  13.9384765625 7.94375000000002  C 13.8974609375 7.98124999999993  13.8450520833333 8  13.78125 8  L 13.125 8  L 13.125 8.79999999999995  C 13.125 9.13333333333333  12.9973958333333 9.41666666666663  12.7421875 9.64999999999998  C 12.4869791666667 9.88333333333333  12.1770833333333 10  11.8125 10  C 11.4479166666667 10  11.1380208333333 9.88333333333333  10.8828125 9.64999999999998  C 10.6276041666667 9.41666666666663  10.5 9.13333333333333  10.5 8.79999999999995  L 10.5 8  L 3.5 8  L 3.5 8.79999999999995  C 3.5 9.13333333333333  3.37239583333331 9.41666666666663  3.1171875 9.64999999999998  C 2.86197916666669 9.88333333333333  2.55208333333331 10  2.1875 10  C 1.82291666666669 10  1.51302083333331 9.88333333333333  1.2578125 9.64999999999998  C 1.00260416666669 9.41666666666663  0.875 9.13333333333333  0.875 8.79999999999995  L 0.875 8  L 0.21875 8  C 0.154947916666686 8  0.1025390625 7.98124999999993  0.0615234375 7.94375000000002  C 0.0205078125 7.90625  0 7.85833333333323  0 7.80000000000007  L 0 5.40000000000009  C 0 5.01249999999993  0.149251302083314 4.68229166666674  0.44775390625 4.40937499999995  C 0.746256510416686 4.13645833333328  1.107421875 4  1.53125 4  L 1.72265625 4  L 2.4404296875 1.38125000000002  C 2.54524739583331 0.989583333333258  2.7822265625 0.661458333333371  3.1513671875 0.396875000000023  C 3.5205078125 0.132291666666674  3.92838541666669 0  4.375 0  L 9.625 0  C 10.0716145833333 0  10.4794921875 0.132291666666674  10.8486328125 0.396875000000023  C 11.2177734375 0.661458333333371  11.4547526041667 0.989583333333258  11.5595703125 1.38125000000002  L 12.27734375 4  L 12.46875 4  C 12.892578125 4  13.2537434895833 4.13645833333328  13.55224609375 4.40937499999995  Z " fill-rule="nonzero" fill="#ffffff" stroke="none" transform="matrix(1 0 0 1 629 424 )" />
  </g>
</svg>