<?xml version="1.0" encoding="utf-8"?>
<svg version="1.1" xmlns:xlink="http://www.w3.org/1999/xlink" width="14px" height="14px" xmlns="http://www.w3.org/2000/svg">
  <g transform="matrix(1 0 0 1 -459 -117 )">
    <path d="M 8.08463541666663 3.58203125  C 8.13932291666663 3.63671875  8.16666666666663 3.70659722222221  8.16666666666663 3.79166666666667  L 8.16666666666663 7.875  C 8.16666666666663 7.96006944444444  8.13932291666663 8.02994791666667  8.08463541666663 8.08463541666667  C 8.02994791666663 8.13932291666667  7.96006944444446 8.16666666666667  7.875 8.16666666666667  L 4.95833333333337 8.16666666666667  C 4.87326388888891 8.16666666666667  4.80338541666663 8.13932291666667  4.74869791666663 8.08463541666667  C 4.69401041666663 8.02994791666667  4.66666666666663 7.96006944444444  4.66666666666663 7.875  L 4.66666666666663 7.29166666666667  C 4.66666666666663 7.20659722222223  4.69401041666663 7.13671875  4.74869791666663 7.08203125  C 4.80338541666663 7.02734375  4.87326388888891 7  4.95833333333337 7  L 7 7  L 7 3.79166666666667  C 7 3.70659722222221  7.02734375 3.63671875  7.08203125 3.58203125  C 7.13671875 3.52734375  7.20659722222217 3.5  7.29166666666663 3.5  L 7.875 3.5  C 7.96006944444446 3.5  8.02994791666663 3.52734375  8.08463541666663 3.58203125  Z M 11.29296875 9.48828125  C 11.4692861450043 9.18636790238989  11.6105612963728 8.87341384788081  11.7167942041054 8.54941908647277  C 11.8778202902573 8.05831318080944  11.9583333333334 7.54184015198518  11.9583333333334 7  C 11.9583333333334 6.10069444444444  11.7365451388889 5.27126736111111  11.29296875 4.51171875  C 10.8493923611111 3.75217013888889  10.2478298611111 3.15060763888889  9.48828125 2.70703125  C 8.72873263888891 2.26345486111111  7.89930555555554 2.04166666666667  7 2.04166666666667  C 6.10069444444446 2.04166666666667  5.27126736111109 2.26345486111111  4.51171875 2.70703125  C 3.75217013888891 3.15060763888889  3.15060763888891 3.75217013888889  2.70703125 4.51171875  C 2.26345486111109 5.27126736111111  2.04166666666663 6.10069444444444  2.04166666666663 7  C 2.04166666666663 7.89930555555556  2.26345486111109 8.72873263888889  2.70703125 9.48828125  C 3.15060763888891 10.2478298611111  3.75217013888891 10.8493923611111  4.51171875 11.29296875  C 5.27126736111109 11.7365451388889  6.10069444444446 11.9583333333333  7 11.9583333333333  C 7.89930555555554 11.9583333333333  8.72873263888891 11.7365451388889  9.48828125 11.29296875  C 10.2478298611111 10.8493923611111  10.8493923611111 10.2478298611111  11.29296875 9.48828125  Z M 13.0611979166666 3.486328125  C 13.6870659722222 4.55881076388889  14 5.73003472222221  14 7  C 14 8.26996527777777  13.6870659722222 9.44118923611111  13.0611979166666 10.513671875  C 12.4353298611111 11.5861545138889  11.5861545138889 12.4353298611111  10.513671875 13.0611979166667  C 9.44118923611109 13.6870659722222  8.26996527777783 14  7 14  C 5.73003472222217 14  4.55881076388891 13.6870659722222  3.486328125 13.0611979166667  C 2.41384548611109 12.4353298611111  1.56467013888891 11.5861545138889  0.938802083333371 10.513671875  C 0.312934027777828 9.44118923611111  0 8.26996527777777  0 7  C 0 5.73003472222221  0.312934027777828 4.55881076388889  0.938802083333371 3.486328125  C 1.56467013888891 2.41384548611111  2.41384548611109 1.56467013888889  3.486328125 0.938802083333329  C 4.55881076388891 0.312934027777771  5.73003472222217 0  7 0  C 8.26996527777783 0  9.44118923611109 0.312934027777771  10.513671875 0.938802083333329  C 11.5861545138889 1.56467013888889  12.4353298611111 2.41384548611111  13.0611979166666 3.486328125  Z " fill-rule="nonzero" fill="#cacbdc" stroke="none" transform="matrix(1 0 0 1 459 117 )" />
  </g>
</svg>