<?xml version="1.0" encoding="utf-8"?>
<svg version="1.1" xmlns:xlink="http://www.w3.org/1999/xlink" width="13px" height="15px" xmlns="http://www.w3.org/2000/svg">
  <g transform="matrix(1 0 0 1 -165 -372 )">
    <path d="M 8.7978515625 6.767578125  C 9.4326171875 6.279296875  9.75 5.69010416666669  9.75 5  C 9.75 4.30989583333331  9.4326171875 3.720703125  8.7978515625 3.232421875  C 8.1630859375 2.744140625  7.39713541666664 2.5  6.5 2.5  C 5.60286458333336 2.5  4.8369140625 2.744140625  4.2021484375 3.232421875  C 3.5673828125 3.720703125  3.25 4.30989583333331  3.25 5  C 3.25 5.69010416666669  3.5673828125 6.279296875  4.2021484375 6.767578125  C 4.8369140625 7.255859375  5.60286458333336 7.5  6.5 7.5  C 7.39713541666664 7.5  8.1630859375 7.255859375  8.7978515625 6.767578125  Z M 11.095703125 1.46484375  C 12.365234375 2.44140625  13 3.61979166666663  13 5  C 13 5.70963541666669  12.8603515625 6.29231770833331  12.5810546875 6.748046875  L 7.9599609375 14.306640625  C 7.82454427083336 14.521484375  7.62353515625 14.6907552083334  7.35693359375 14.814453125  C 7.09033203125 14.9381510416667  6.8046875 15  6.5 15  C 6.1953125 15  5.90966796875 14.9381510416667  5.64306640625 14.814453125  C 5.37646484375 14.6907552083334  5.1796875 14.521484375  5.052734375 14.306640625  L 0.4189453125 6.748046875  C 0.1396484375 6.29231770833331  0 5.70963541666669  0 5  C 0 3.61979166666663  0.634765625 2.44140625  1.904296875 1.46484375  C 3.173828125 0.48828125  4.70572916666664 0  6.5 0  C 8.29427083333336 0  9.826171875 0.48828125  11.095703125 1.46484375  Z " fill-rule="nonzero" fill="#1890ff" stroke="none" transform="matrix(1 0 0 1 165 372 )" />
  </g>
</svg>