<?xml version="1.0" encoding="utf-8"?>
<svg version="1.1" xmlns:xlink="http://www.w3.org/1999/xlink" width="77px" height="20px" xmlns="http://www.w3.org/2000/svg">
  <g transform="matrix(1 0 0 1 -162 -700 )">
    <path d="M 163 704  A 3 3 0 0 1 166 701 L 235 701  A 3 3 0 0 1 238 704 L 238 716  A 3 3 0 0 1 235 719 L 166 719  A 3 3 0 0 1 163 716 L 163 704  Z " fill-rule="nonzero" fill="#ffaa00" stroke="none" fill-opacity="0.0980392156862745" />
    <path d="M 162.5 704  A 3.5 3.5 0 0 1 166 700.5 L 235 700.5  A 3.5 3.5 0 0 1 238.5 704 L 238.5 716  A 3.5 3.5 0 0 1 235 719.5 L 166 719.5  A 3.5 3.5 0 0 1 162.5 716 L 162.5 704  Z " stroke-width="1" stroke="#ffaa00" fill="none" stroke-opacity="0.498039215686275" />
  </g>
</svg>