<?xml version="1.0" encoding="utf-8"?>
<svg version="1.1" xmlns:xlink="http://www.w3.org/1999/xlink" width="100px" height="26px" xmlns="http://www.w3.org/2000/svg">
  <g transform="matrix(1 0 0 1 -1051 -91 )">
    <path d="M 1052 96  A 4 4 0 0 1 1056 92 L 1146 92  A 4 4 0 0 1 1150 96 L 1150 112  A 4 4 0 0 1 1146 116 L 1056 116  A 4 4 0 0 1 1052 112 L 1052 96  Z " fill-rule="nonzero" fill="#1490ff" stroke="none" fill-opacity="0.0980392156862745" />
    <path d="M 1051.5 96  A 4.5 4.5 0 0 1 1056 91.5 L 1146 91.5  A 4.5 4.5 0 0 1 1150.5 96 L 1150.5 112  A 4.5 4.5 0 0 1 1146 116.5 L 1056 116.5  A 4.5 4.5 0 0 1 1051.5 112 L 1051.5 96  Z " stroke-width="1" stroke="#1490ff" fill="none" stroke-opacity="0.498039215686275" />
  </g>
</svg>