<?xml version="1.0" encoding="utf-8"?>
<svg version="1.1" xmlns:xlink="http://www.w3.org/1999/xlink" width="14px" height="16px" xmlns="http://www.w3.org/2000/svg">
  <g transform="matrix(1 0 0 1 -27 -259 )">
    <path d="M 10.5364583333333 0.607142857142858  L 13.3802083333333 3.39285714285714  C 13.5503472222222 3.55952380952381  13.6961805555556 3.78571428571429  13.8177083333333 4.07142857142857  C 13.9392361111111 4.35714285714286  14 4.61904761904762  14 4.85714285714286  L 14 15.1428571428571  C 14 15.3809523809524  13.9149305555556 15.5833333333333  13.7447916666667 15.75  C 13.5746527777778 15.9166666666667  13.3680555555556 16  13.125 16  L 0.875 16  C 0.631944444444445 16  0.425347222222222 15.9166666666667  0.255208333333333 15.75  C 0.0850694444444444 15.5833333333333  0 15.3809523809524  0 15.1428571428571  L 0 0.857142857142858  C 0 0.619047619047619  0.0850694444444444 0.416666666666666  0.255208333333333 0.25  C 0.425347222222222 0.0833333333333339  0.631944444444445 0  0.875 0  L 9.04166666666667 0  C 9.28472222222222 0  9.55208333333333 0.0595238095238102  9.84375 0.178571428571429  C 10.1354166666667 0.297619047619047  10.3663194444444 0.44047619047619  10.5364583333333 0.607142857142858  Z M 9.70703125 1.41071428571429  C 9.63411458333333 1.33928571428571  9.50954861111111 1.27380952380952  9.33333333333333 1.21428571428571  L 9.33333333333333 4.57142857142857  L 12.7604166666667 4.57142857142857  C 12.6996527777778 4.39880952380952  12.6328125 4.27678571428571  12.5598958333333 4.20535714285714  L 9.70703125 1.41071428571429  Z M 1.16666666666667 14.8571428571429  L 12.8333333333333 14.8571428571429  L 12.8333333333333 5.71428571428571  L 9.04166666666667 5.71428571428571  C 8.79861111111111 5.71428571428571  8.59201388888889 5.63095238095238  8.421875 5.46428571428571  C 8.25173611111111 5.29761904761905  8.16666666666667 5.09523809523809  8.16666666666667 4.85714285714286  L 8.16666666666667 1.14285714285714  L 1.16666666666667 1.14285714285714  L 1.16666666666667 14.8571428571429  Z M 4.52994791666667 12.7678571428571  L 3.91015625 12.7678571428571  L 3.91015625 13.7142857142857  L 6.47135416666667 13.7142857142857  L 6.47135416666667 12.7678571428571  L 5.78776041666667 12.7678571428571  L 6.7265625 11.3303571428571  C 6.75694444444444 11.2886904761905  6.78732638888889 11.2395833333333  6.81770833333333 11.1830357142857  C 6.84809027777778 11.1264880952381  6.87087673611111 11.0863095238095  6.88606770833333 11.0625  C 6.90125868055556 11.0386904761905  6.91189236111111 11.0267857142857  6.91796875 11.0267857142857  L 6.93619791666667 11.0267857142857  C 6.94227430555556 11.0505952380952  6.95746527777778 11.0803571428571  6.98177083333333 11.1160714285714  C 6.99392361111111 11.139880952381  7.00759548611111 11.1622023809524  7.02278645833333 11.1830357142857  C 7.03797743055556 11.203869047619  7.05620659722222 11.2276785714286  7.07747395833333 11.2544642857143  C 7.09874131944445 11.28125  7.11848958333333 11.3065476190476  7.13671875 11.3303571428571  L 8.11197916666667 12.7678571428571  L 7.41927083333333 12.7678571428571  L 7.41927083333333 13.7142857142857  L 10.0716145833333 13.7142857142857  L 10.0716145833333 12.7678571428571  L 9.45182291666667 12.7678571428571  L 7.70182291666667 10.3303571428571  L 9.47916666666667 7.8125  L 10.08984375 7.8125  L 10.08984375 6.85714285714286  L 7.546875 6.85714285714286  L 7.546875 7.8125  L 8.22135416666667 7.8125  L 7.28255208333333 9.23214285714286  C 7.25824652777778 9.27380952380952  7.22786458333333 9.32291666666667  7.19140625 9.37946428571428  C 7.15494791666667 9.43601190476191  7.12760416666667 9.47619047619047  7.109375 9.5  L 7.09114583333333 9.52678571428572  L 7.07291666666667 9.52678571428572  C 7.06684027777778 9.50297619047619  7.05164930555556 9.47321428571428  7.02734375 9.4375  C 6.99088541666667 9.37202380952381  6.93923611111111 9.30357142857143  6.87239583333333 9.23214285714286  L 5.90625 7.8125  L 6.59895833333333 7.8125  L 6.59895833333333 6.85714285714286  L 3.95572916666667 6.85714285714286  L 3.95572916666667 7.8125  L 4.57552083333333 7.8125  L 6.29817708333333 10.2410714285714  L 4.52994791666667 12.7678571428571  Z " fill-rule="nonzero" fill="#1490ff" stroke="none" transform="matrix(1 0 0 1 27 259 )" />
  </g>
</svg>