<?xml version="1.0" encoding="utf-8"?>
<svg version="1.1" xmlns:xlink="http://www.w3.org/1999/xlink" width="18px" height="14px" xmlns="http://www.w3.org/2000/svg">
  <g transform="matrix(1 0 0 1 -26 -156 )">
    <path d="M 5.29411764705882 10.078125  L 5.29411764705882 12.75  L 8.47058823529412 11.25  L 8.47058823529412 8.796875  L 5.29411764705882 10.078125  Z M 1.42279411764706 7.8515625  L 4.76470588235294 9.203125  L 8.10661764705882 7.8515625  L 4.76470588235294 6.5  L 1.42279411764706 7.8515625  Z M 13.7647058823529 10.078125  L 13.7647058823529 12.75  L 16.9411764705882 11.25  L 16.9411764705882 8.796875  L 13.7647058823529 10.078125  Z M 9.89338235294118 7.8515625  L 13.2352941176471 9.203125  L 16.5772058823529 7.8515625  L 13.2352941176471 6.5  L 9.89338235294118 7.8515625  Z M 9.52941176470588 4.828125  L 9.52941176470588 6.9140625  L 12.7058823529412 5.625  L 12.7058823529412 3.546875  L 9.52941176470588 4.828125  Z M 5.35202205882353 2.4765625  L 9 3.953125  L 12.6479779411765 2.4765625  L 9 1  L 5.35202205882353 2.4765625  Z M 17.8262867647059 7.453125  C 17.9420955882353 7.61979166666667  18 7.80208333333333  18 8  L 18 11.25  C 18 11.4375  17.9476102941176 11.6119791666667  17.8428308823529 11.7734375  C 17.7380514705882 11.9348958333333  17.5946691176471 12.0572916666667  17.4126838235294 12.140625  L 13.7068014705882 13.890625  C 13.5689338235294 13.9635416666667  13.4117647058824 14  13.2352941176471 14  C 13.0588235294118 14  12.9016544117647 13.9635416666667  12.7637867647059 13.890625  L 9.0579044117647 12.140625  C 9.0358455882353 12.1302083333333  9.01654411764706 12.1197916666667  9 12.109375  C 8.9889705882353 12.1197916666667  8.96966911764706 12.1302083333333  8.94209558823529 12.140625  L 5.23621323529412 13.890625  C 5.09834558823529 13.9635416666667  4.94117647058824 14  4.76470588235294 14  C 4.58823529411765 14  4.43106617647059 13.9635416666667  4.29319852941176 13.890625  L 0.587316176470588 12.140625  C 0.405330882352941 12.0572916666667  0.261948529411765 11.9348958333333  0.157169117647059 11.7734375  C 0.0523897058823529 11.6119791666667  0 11.4375  0 11.25  L 0 8  C 0 7.80208333333333  0.0592830882352941 7.61979166666667  0.177849264705882 7.453125  C 0.296415441176471 7.28645833333333  0.452205882352941 7.16145833333333  0.645220588235294 7.078125  L 4.23529411764706 5.625  L 4.23529411764706 2.5  C 4.23529411764706 2.30208333333333  4.29457720588235 2.11979166666667  4.41314338235294 1.953125  C 4.53170955882353 1.78645833333333  4.6875 1.66145833333333  4.88051470588235 1.578125  L 8.58639705882353 0.0781249999999993  C 8.71323529411765 0.0260416666666685  8.85110294117647 0  9 0  C 9.14889705882353 0  9.28676470588235 0.0260416666666685  9.41360294117647 0.0781249999999993  L 13.1194852941176 1.578125  C 13.3125 1.66145833333333  13.4682904411765 1.78645833333333  13.5868566176471 1.953125  C 13.7054227941176 2.11979166666667  13.7647058823529 2.30208333333333  13.7647058823529 2.5  L 13.7647058823529 5.625  L 17.3547794117647 7.078125  C 17.5533088235294 7.16145833333333  17.7104779411765 7.28645833333333  17.8262867647059 7.453125  Z " fill-rule="nonzero" fill="#1490ff" stroke="none" transform="matrix(1 0 0 1 26 156 )" />
  </g>
</svg>