<?xml version="1.0" encoding="utf-8"?>
<svg version="1.1" xmlns:xlink="http://www.w3.org/1999/xlink" width="540px" height="32px" xmlns="http://www.w3.org/2000/svg">
  <g transform="matrix(1 0 0 1 -391 -354 )">
    <path d="M 392 358  A 3 3 0 0 1 395 355 L 927 355  A 3 3 0 0 1 930 358 L 930 382  A 3 3 0 0 1 927 385 L 395 385  A 3 3 0 0 1 392 382 L 392 358  Z " fill-rule="nonzero" fill="#ffffff" stroke="none" />
    <path d="M 391.5 358  A 3.5 3.5 0 0 1 395 354.5 L 927 354.5  A 3.5 3.5 0 0 1 930.5 358 L 930.5 382  A 3.5 3.5 0 0 1 927 385.5 L 395 385.5  A 3.5 3.5 0 0 1 391.5 382 L 391.5 358  Z " stroke-width="1" stroke-dasharray="9,4" stroke="#d9d9d9" fill="none" stroke-dashoffset="0.5" />
  </g>
</svg>