<?xml version="1.0" encoding="utf-8"?>
<svg version="1.1" xmlns:xlink="http://www.w3.org/1999/xlink" width="1029px" height="32px" xmlns="http://www.w3.org/2000/svg">
  <g transform="matrix(1 0 0 1 -159 -592 )">
    <path d="M 160 596  A 3 3 0 0 1 163 593 L 1184 593  A 3 3 0 0 1 1187 596 L 1187 620  A 3 3 0 0 1 1184 623 L 163 623  A 3 3 0 0 1 160 620 L 160 596  Z " fill-rule="nonzero" fill="#ffffff" stroke="none" />
    <path d="M 159.5 596  A 3.5 3.5 0 0 1 163 592.5 L 1184 592.5  A 3.5 3.5 0 0 1 1187.5 596 L 1187.5 620  A 3.5 3.5 0 0 1 1184 623.5 L 163 623.5  A 3.5 3.5 0 0 1 159.5 620 L 159.5 596  Z " stroke-width="1" stroke-dasharray="9,4" stroke="#d9d9d9" fill="none" stroke-dashoffset="0.5" />
  </g>
</svg>