<?xml version="1.0" encoding="utf-8"?>
<svg version="1.1" xmlns:xlink="http://www.w3.org/1999/xlink" width="17px" height="15px" xmlns="http://www.w3.org/2000/svg">
  <g transform="matrix(1 0 0 1 -1051 -549 )">
    <path d="M 1.30769230769231 11.5178571428571  L 1.30769230769231 13.9285714285714  L 4.25 13.9285714285714  L 4.25 11.5178571428571  L 1.30769230769231 11.5178571428571  Z M 4.90384615384615 11.5178571428571  L 4.90384615384615 13.9285714285714  L 8.17307692307692 13.9285714285714  L 8.17307692307692 11.5178571428571  L 4.90384615384615 11.5178571428571  Z M 1.30769230769231 8.30357142857143  L 1.30769230769231 10.9821428571429  L 4.25 10.9821428571429  L 4.25 8.30357142857143  L 1.30769230769231 8.30357142857143  Z M 4.90384615384615 8.30357142857143  L 4.90384615384615 10.9821428571429  L 8.17307692307692 10.9821428571429  L 8.17307692307692 8.30357142857143  L 4.90384615384615 8.30357142857143  Z M 1.30769230769231 5.35714285714286  L 1.30769230769231 7.76785714285714  L 4.25 7.76785714285714  L 4.25 5.35714285714286  L 1.30769230769231 5.35714285714286  Z M 8.82692307692308 11.5178571428571  L 8.82692307692308 13.9285714285714  L 12.0961538461538 13.9285714285714  L 12.0961538461538 11.5178571428571  L 8.82692307692308 11.5178571428571  Z M 4.90384615384615 5.35714285714286  L 4.90384615384615 7.76785714285714  L 8.17307692307692 7.76785714285714  L 8.17307692307692 5.35714285714286  L 4.90384615384615 5.35714285714286  Z M 12.75 11.5178571428571  L 12.75 13.9285714285714  L 15.6923076923077 13.9285714285714  L 15.6923076923077 11.5178571428571  L 12.75 11.5178571428571  Z M 8.82692307692308 8.30357142857143  L 8.82692307692308 10.9821428571429  L 12.0961538461538 10.9821428571429  L 12.0961538461538 8.30357142857143  L 8.82692307692308 8.30357142857143  Z M 5.13371394230769 3.93833705357143  C 5.19841746794872 3.88532366071428  5.23076923076923 3.82254464285714  5.23076923076923 3.75  L 5.23076923076923 1.33928571428571  C 5.23076923076923 1.26674107142857  5.19841746794872 1.20396205357143  5.13371394230769 1.15094866071429  C 5.06901041666667 1.09793526785714  4.99238782051282 1.07142857142857  4.90384615384615 1.07142857142857  L 4.25 1.07142857142857  C 4.16145833333333 1.07142857142857  4.08483573717949 1.09793526785714  4.02013221153846 1.15094866071429  C 3.95542868589744 1.20396205357143  3.92307692307692 1.26674107142857  3.92307692307692 1.33928571428571  L 3.92307692307692 3.75  C 3.92307692307692 3.82254464285714  3.95542868589744 3.88532366071428  4.02013221153846 3.93833705357143  C 4.08483573717949 3.99135044642857  4.16145833333333 4.01785714285714  4.25 4.01785714285714  L 4.90384615384615 4.01785714285714  C 4.99238782051282 4.01785714285714  5.06901041666667 3.99135044642857  5.13371394230769 3.93833705357143  Z M 12.75 8.30357142857143  L 12.75 10.9821428571429  L 15.6923076923077 10.9821428571429  L 15.6923076923077 8.30357142857143  L 12.75 8.30357142857143  Z M 8.82692307692308 5.35714285714286  L 8.82692307692308 7.76785714285714  L 12.0961538461538 7.76785714285714  L 12.0961538461538 5.35714285714286  L 8.82692307692308 5.35714285714286  Z M 12.75 5.35714285714286  L 12.75 7.76785714285714  L 15.6923076923077 7.76785714285714  L 15.6923076923077 5.35714285714286  L 12.75 5.35714285714286  Z M 12.9798677884615 3.93833705357143  C 13.0445713141026 3.88532366071428  13.0769230769231 3.82254464285714  13.0769230769231 3.75  L 13.0769230769231 1.33928571428571  C 13.0769230769231 1.26674107142857  13.0445713141026 1.20396205357143  12.9798677884615 1.15094866071429  C 12.9151642628205 1.09793526785714  12.8385416666667 1.07142857142857  12.75 1.07142857142857  L 12.0961538461538 1.07142857142857  C 12.0076121794872 1.07142857142857  11.9309895833333 1.09793526785714  11.8662860576923 1.15094866071429  C 11.8015825320513 1.20396205357143  11.7692307692308 1.26674107142857  11.7692307692308 1.33928571428571  L 11.7692307692308 3.75  C 11.7692307692308 3.82254464285714  11.8015825320513 3.88532366071428  11.8662860576923 3.93833705357143  C 11.9309895833333 3.99135044642857  12.0076121794872 4.01785714285714  12.0961538461538 4.01785714285714  L 12.75 4.01785714285714  C 12.8385416666667 4.01785714285714  12.9151642628205 3.99135044642857  12.9798677884615 3.93833705357143  Z M 16.6117788461538 2.4609375  C 16.8705929487179 2.67299107142857  17 2.92410714285714  17 3.21428571428571  L 17 13.9285714285714  C 17 14.21875  16.8705929487179 14.4698660714286  16.6117788461538 14.6819196428571  C 16.3529647435897 14.8939732142857  16.0464743589744 15  15.6923076923077 15  L 1.30769230769231 15  C 0.953525641025641 15  0.647035256410256 14.8939732142857  0.388221153846154 14.6819196428571  C 0.129407051282051 14.4698660714286  0 14.21875  0 13.9285714285714  L 0 3.21428571428571  C 0 2.92410714285714  0.129407051282051 2.67299107142857  0.388221153846154 2.4609375  C 0.647035256410256 2.24888392857143  0.953525641025641 2.14285714285714  1.30769230769231 2.14285714285714  L 2.61538461538462 2.14285714285714  L 2.61538461538462 1.33928571428571  C 2.61538461538462 0.970982142857144  2.77544070512821 0.655691964285713  3.09555288461538 0.393415178571429  C 3.41566506410256 0.131138392857143  3.80048076923077 0  4.25 0  L 4.90384615384615 0  C 5.35336538461538 0  5.73818108974359 0.131138392857143  6.05829326923077 0.393415178571429  C 6.37840544871795 0.655691964285713  6.53846153846154 0.970982142857144  6.53846153846154 1.33928571428571  L 6.53846153846154 2.14285714285714  L 10.4615384615385 2.14285714285714  L 10.4615384615385 1.33928571428571  C 10.4615384615385 0.970982142857144  10.6215945512821 0.655691964285713  10.9417067307692 0.393415178571429  C 11.2618189102564 0.131138392857143  11.6466346153846 0  12.0961538461538 0  L 12.75 0  C 13.1995192307692 0  13.5843349358974 0.131138392857143  13.9044471153846 0.393415178571429  C 14.2245592948718 0.655691964285713  14.3846153846154 0.970982142857144  14.3846153846154 1.33928571428571  L 14.3846153846154 2.14285714285714  L 15.6923076923077 2.14285714285714  C 16.0464743589744 2.14285714285714  16.3529647435897 2.24888392857143  16.6117788461538 2.4609375  Z " fill-rule="nonzero" fill="#a3a4b5" stroke="none" transform="matrix(1 0 0 1 1051 549 )" />
  </g>
</svg>