<?xml version="1.0" encoding="utf-8"?>
<svg version="1.1" xmlns:xlink="http://www.w3.org/1999/xlink" width="1261px" height="32px" xmlns="http://www.w3.org/2000/svg">
  <g transform="matrix(1 0 0 1 -72 -715 )">
    <path d="M 73 719  A 3 3 0 0 1 76 716 L 1329 716  A 3 3 0 0 1 1332 719 L 1332 743  A 3 3 0 0 1 1329 746 L 76 746  A 3 3 0 0 1 73 743 L 73 719  Z " fill-rule="nonzero" fill="#ffffff" stroke="none" />
    <path d="M 72.5 719  A 3.5 3.5 0 0 1 76 715.5 L 1329 715.5  A 3.5 3.5 0 0 1 1332.5 719 L 1332.5 743  A 3.5 3.5 0 0 1 1329 746.5 L 76 746.5  A 3.5 3.5 0 0 1 72.5 743 L 72.5 719  Z " stroke-width="1" stroke-dasharray="9,4" stroke="#d9d9d9" fill="none" stroke-dashoffset="0.5" />
  </g>
</svg>