<?xml version="1.0" encoding="utf-8"?>
<svg version="1.1" xmlns:xlink="http://www.w3.org/1999/xlink" width="60px" height="32px" xmlns="http://www.w3.org/2000/svg">
  <g transform="matrix(1 0 0 1 -1128 -87 )">
    <path d="M 1129 92  A 4 4 0 0 1 1133 88 L 1183 88  A 4 4 0 0 1 1187 92 L 1187 114  A 4 4 0 0 1 1183 118 L 1133 118  A 4 4 0 0 1 1129 114 L 1129 92  Z " fill-rule="nonzero" fill="#1490ff" stroke="none" />
    <path d="M 1128.5 92  A 4.5 4.5 0 0 1 1133 87.5 L 1183 87.5  A 4.5 4.5 0 0 1 1187.5 92 L 1187.5 114  A 4.5 4.5 0 0 1 1183 118.5 L 1133 118.5  A 4.5 4.5 0 0 1 1128.5 114 L 1128.5 92  Z " stroke-width="1" stroke="#1490ff" fill="none" stroke-opacity="0.498039215686275" />
  </g>
</svg>