<?xml version="1.0" encoding="utf-8"?>
<svg version="1.1" xmlns:xlink="http://www.w3.org/1999/xlink" width="60px" height="32px" xmlns="http://www.w3.org/2000/svg">
  <g transform="matrix(1 0 0 1 -1055 -87 )">
    <path d="M 1056 92  A 4 4 0 0 1 1060 88 L 1110 88  A 4 4 0 0 1 1114 92 L 1114 114  A 4 4 0 0 1 1110 118 L 1060 118  A 4 4 0 0 1 1056 114 L 1056 92  Z " fill-rule="nonzero" fill="#ffffff" stroke="none" />
    <path d="M 1055.5 92  A 4.5 4.5 0 0 1 1060 87.5 L 1110 87.5  A 4.5 4.5 0 0 1 1114.5 92 L 1114.5 114  A 4.5 4.5 0 0 1 1110 118.5 L 1060 118.5  A 4.5 4.5 0 0 1 1055.5 114 L 1055.5 92  Z " stroke-width="1" stroke="#1490ff" fill="none" stroke-opacity="0.498039215686275" />
  </g>
</svg>