<?xml version="1.0" encoding="utf-8"?>
<svg version="1.1" xmlns:xlink="http://www.w3.org/1999/xlink" width="9px" height="6px" xmlns="http://www.w3.org/2000/svg">
  <g transform="matrix(1 0 0 1 -254 -143 )">
    <path d="M 8.29102500000004 1.30600000000004  C 8.38867499999998 1.19662500000004  8.4375 1.06887499999993  8.4375 0.921875  C 8.4375 0.774875000000065  8.38867499999998 0.64712499999996  8.29102500000004 0.53774999999996  C 8.19258750000004 0.42837499999996  8.07761250000004 0.375  7.9453125 0.375  L 1.0546875 0.375  C 0.921600000000001 0.375  0.806625000000008 0.42837499999996  0.708974999999964 0.53774999999996  C 0.610537499999964 0.64712499999996  0.5625 0.774875000000065  0.5625 0.921875  C 0.5625 1.06887499999993  0.610537499999964 1.19662500000004  0.708974999999964 1.30600000000004  L 4.15428749999996 5.13412500000004  C 4.25193750000001 5.24174999999991  4.3669125 5.296875  4.5 5.296875  C 4.63230000000004 5.296875  4.74727500000004 5.24262500000009  4.84571250000004 5.13412500000004  L 8.29102500000004 1.30600000000004  Z " fill-rule="nonzero" fill="#a3a4b5" stroke="none" transform="matrix(1 0 0 1 254 143 )" />
  </g>
</svg>