<?xml version="1.0" encoding="utf-8"?>
<svg version="1.1" xmlns:xlink="http://www.w3.org/1999/xlink" width="1265px" height="32px" xmlns="http://www.w3.org/2000/svg">
  <g transform="matrix(1 0 0 1 -15 -367 )">
    <path d="M 16 371  A 3 3 0 0 1 19 368 L 1276 368  A 3 3 0 0 1 1279 371 L 1279 395  A 3 3 0 0 1 1276 398 L 19 398  A 3 3 0 0 1 16 395 L 16 371  Z " fill-rule="nonzero" fill="#ffffff" stroke="none" />
    <path d="M 15.5 371  A 3.5 3.5 0 0 1 19 367.5 L 1276 367.5  A 3.5 3.5 0 0 1 1279.5 371 L 1279.5 395  A 3.5 3.5 0 0 1 1276 398.5 L 19 398.5  A 3.5 3.5 0 0 1 15.5 395 L 15.5 371  Z " stroke-width="1" stroke-dasharray="9,4" stroke="#d9d9d9" fill="none" stroke-dashoffset="0.5" />
  </g>
</svg>